<?xml version="1.0" encoding="UTF-8" standalone="no"?>
<svg xmlns="http://www.w3.org/2000/svg" xmlns:xlink="http://www.w3.org/1999/xlink" version="1.2" baseProfile="tiny" class="canvas" display="inline" height="95%" id="canvas.CM340A_AdcDiagc/AdcDiagc/AdcDiagcPer1/NTC Fault Processing0/GetNtcQlfr" original_viewBox="74.00 24.00 503.50 175.00" preserveAspectRatio="xMinYMin meet" viewBox="74.00 24.00 503.50 175.00" width="100%" x="0" y="0" zoomAndPan="disable">
  <defs/>
  <g fill="none" stroke="black" stroke-width="1" fill-rule="evenodd" stroke-linecap="square" stroke-linejoin="bevel">
    <g id="background" stroke="none" fill-opacity="1" fill="#ffffff">
      <g fill="#ffffff" fill-opacity="1" stroke="none" transform="matrix(1,0,0,1,0,0)" font-family="MS Shell Dlg 2" font-size="8.25" font-weight="400" font-style="normal">
        <path vector-effect="non-scaling-stroke" fill-rule="evenodd" d="M80,30 L571.5,30 L571.5,193 L80,193 L80,30z "/>
      </g>
    </g>
    <g id="prop.CM340A_AdcDiagc/AdcDiagc/AdcDiagcPer1/NTC Fault Processing0/GetNtcQlfr" class="proptable" display="none" pointer-events="none" extent_Height="86" extent_Width="184.25" preferred_X="5" preferred_Y="5">
      <rect x="0" y="0" width="184.25" height="86" rx="4" ry="4" stroke="none" fill="rgb(100%,100%,100%)"/>
      <text x="3" y="12" fill="rgb(0%,0%,0%)" stroke="none" font-family="Helvetica" font-size="9">ShowPortLabels</text>
      <text x="122" y="12" fill="rgb(0%,0%,0%)" stroke="none" font-family="Helvetica" font-size="9">FromPortIcon</text>
      <rect x="0" y="15" width="184.25" height="14" stroke="none" fill="rgb(90.2%,90.2%,90.2%)"/>
      <text x="3" y="26" fill="rgb(0%,0%,0%)" stroke="none" font-family="Helvetica" font-size="9">Permissions</text>
      <text x="122" y="26" fill="rgb(0%,0%,0%)" stroke="none" font-family="Helvetica" font-size="9">ReadWrite</text>
      <text x="3" y="40" fill="rgb(0%,0%,0%)" stroke="none" font-family="Helvetica" font-size="9">ErrorFcn</text>
      <text x="122" y="40" fill="rgb(0%,0%,0%)" stroke="none" font-family="Helvetica" font-size="9"/>
      <rect x="0" y="43" width="184.25" height="14" stroke="none" fill="rgb(90.2%,90.2%,90.2%)"/>
      <text x="3" y="54" fill="rgb(0%,0%,0%)" stroke="none" font-family="Helvetica" font-size="9">PermitHierarchicalResolution</text>
      <text x="122" y="54" fill="rgb(0%,0%,0%)" stroke="none" font-family="Helvetica" font-size="9">All</text>
      <text x="3" y="68" fill="rgb(0%,0%,0%)" stroke="none" font-family="Helvetica" font-size="9">TreatAsAtomicUnit</text>
      <text x="122" y="68" fill="rgb(0%,0%,0%)" stroke="none" font-family="Helvetica" font-size="9">off</text>
      <rect x="0" y="71" width="184.25" height="14" stroke="none" fill="rgb(90.2%,90.2%,90.2%)"/>
      <text x="3" y="82" fill="rgb(0%,0%,0%)" stroke="none" font-family="Helvetica" font-size="9">RTWSystemCode</text>
      <text x="122" y="82" fill="rgb(0%,0%,0%)" stroke="none" font-family="Helvetica" font-size="9">Auto</text>
      <rect x="0" y="0" width="184.25" height="86" rx="4" ry="4" stroke="rgb(0%,0%,0%)" fill="none"/>
    </g>
    <g id="CM340A_AdcDiagc/AdcDiagc/AdcDiagcPer1/NTC Fault Processing0/GetNtcQlfr" linkid="CM340A_AdcDiagc/AdcDiagc/AdcDiagcPer1/NTC Fault Processing0/GetNtcQlfr" onmouseover="showPropAndHighlight(evt)" onmouseout="hidePropAndUnhighlight(evt)" onclick="changeSys(evt)" highlight="fill">
      <title id="title.CM340A_AdcDiagc/AdcDiagc/AdcDiagcPer1/NTC Fault Processing0/GetNtcQlfr">GetNtcQlfr</title>
      <g id="prop.CM340A_AdcDiagc/AdcDiagc/AdcDiagcPer1/NTC Fault Processing0/GetNtcQlfr/CopyRight2" class="proptable" display="none" pointer-events="none" extent_Height="16" extent_Width="45.25" preferred_X="425" preferred_Y="35">
        <rect x="0" y="0" width="45.25" height="16" rx="4" ry="4" stroke="none" fill="rgb(100%,100%,100%)"/>
        <text x="3" y="12" fill="rgb(0%,0%,0%)" stroke="none" font-family="Helvetica" font-size="9">none</text>
        <text x="27.5" y="12" fill="rgb(0%,0%,0%)" stroke="none" font-family="Helvetica" font-size="9">on</text>
        <rect x="0" y="0" width="45.25" height="16" rx="4" ry="4" stroke="rgb(0%,0%,0%)" fill="none"/>
      </g>
      <g id="CM340A_AdcDiagc/AdcDiagc/AdcDiagcPer1/NTC Fault Processing0/GetNtcQlfr/CopyRight2" linkid="CM340A_AdcDiagc/AdcDiagc/AdcDiagcPer1/NTC Fault Processing0/GetNtcQlfr/CopyRight2" onmouseover="showPropAndHighlight(evt)" onmouseout="hidePropAndUnhighlight(evt)" onclick="changeSys(evt)" highlight="fill">
        <title id="title.CM340A_AdcDiagc/AdcDiagc/AdcDiagcPer1/NTC Fault Processing0/GetNtcQlfr/CopyRight2">CopyRight2</title>
        <g fill="#000000" fill-opacity="0.8" stroke="none" transform="matrix(1,0,0,1,110,30)" font-family="MS Shell Dlg 2" font-size="8.25" font-weight="400" font-style="normal">
          <path vector-effect="non-scaling-stroke" fill-rule="evenodd" d="M310,4 L314,4 L314,26 L4,26 L4,22 L310,22 L310,4z "/>
        </g>
        <g fill="#ffffff" fill-opacity="1" stroke="none" transform="matrix(1,0,0,1,110,30)" font-family="MS Shell Dlg 2" font-size="8.25" font-weight="400" font-style="normal">
          <path vector-effect="none" fill-rule="evenodd" d="M0,0 L310,0 L310,22 L0,22 L0,0z "/>
        </g>
        <g fill="#ffffff" fill-opacity="1" stroke="none" transform="matrix(1,0,0,1,110,30)" font-family="MS Shell Dlg 2" font-size="8.25" font-weight="400" font-style="normal" clip-path="url(#clip4795)">
          <defs>
            <clipPath id="clip4795">
              <path vector-effect="none" fill-rule="evenodd" d="M0,0 L310,0 L310,22 L0,22 L0,0z "/>
            </clipPath>
          </defs>
        </g>
        <g fill="#ffffff" fill-opacity="1" stroke="none" transform="matrix(1,0,0,1,0,0)" font-family="MS Shell Dlg 2" font-size="8.25" font-weight="400" font-style="normal" clip-path="url(#clip4796)">
          <defs>
            <clipPath id="clip4796">
              <path vector-effect="non-scaling-stroke" fill-rule="evenodd" d="M110,30 L420,30 L420,52 L110,52 L110,30z "/>
            </clipPath>
          </defs>
          <path vector-effect="non-scaling-stroke" fill-rule="evenodd" d="M110,30 L420,30 L420,52 L110,52 L110,30z "/>
        </g>
        <g fill="#ffffff" fill-opacity="1" stroke="#000000" stroke-opacity="1" stroke-width="1" stroke-linecap="square" stroke-linejoin="bevel" transform="matrix(1,0,0,1,265,41)" font-family="Arial" font-size="10.5" font-weight="400" font-style="normal" clip-path="url(#clip4797)">
          <defs>
            <clipPath id="clip4797">
              <path vector-effect="none" fill-rule="evenodd" d="M-155,-11 L155,-11 L155,11 L-155,11 L-155,-11z "/>
            </clipPath>
          </defs>
        </g>
        <g fill="#ffffff" fill-opacity="1" stroke="#000000" stroke-opacity="1" stroke-width="1" stroke-linecap="square" stroke-linejoin="bevel" transform="matrix(1.33333,0,0,1.33333,265,41)" font-family="Arial" font-size="10.5" font-weight="400" font-style="normal" clip-path="url(#clip4798)">
          <defs>
            <clipPath id="clip4798">
              <path vector-effect="none" fill-rule="evenodd" d="M-116.25,-8.25 L116.25,-8.25 L116.25,8.25 L-116.25,8.25 L-116.25,-8.25z "/>
            </clipPath>
          </defs>
          <text textLength="215" fill="#000000" fill-opacity="1" stroke="none" xml:space="preserve" x="-105" y="3.75" font-family="Arial" font-size="10.5" font-weight="400" font-style="normal">Nxtr Confidential -- ©2013- 2016 Nxtr</text>
        </g>
        <g fill="#ffffff" fill-opacity="1" stroke="#000000" stroke-opacity="1" stroke-width="1" stroke-linecap="square" stroke-linejoin="bevel" transform="matrix(1,0,0,1,265,41)" font-family="Arial" font-size="10.5" font-weight="400" font-style="normal" clip-path="url(#clip4799)">
          <defs>
            <clipPath id="clip4799">
              <path vector-effect="none" fill-rule="evenodd" d="M-155,-11 L155,-11 L155,11 L-155,11 L-155,-11z "/>
            </clipPath>
          </defs>
        </g>
        <g fill="none" stroke="#000000" stroke-opacity="1" stroke-width="1" stroke-linecap="butt" stroke-linejoin="miter" stroke-miterlimit="2" transform="matrix(1,0,0,1,110,30)" font-family="MS Shell Dlg 2" font-size="8.25" font-weight="400" font-style="normal">
          <path vector-effect="none" fill-rule="evenodd" d="M0,0 L310,0 L310,22 L0,22 L0,0z "/>
        </g>
      </g>
      <g id="prop.CM340A_AdcDiagc/AdcDiagc/AdcDiagcPer1/NTC Fault Processing0/GetNtcQlfr/NtcQlfr" class="proptable" display="none" pointer-events="none" extent_Height="156" extent_Width="129" preferred_X="575" preferred_Y="138">
        <rect x="0" y="0" width="129" height="156" rx="4" ry="4" stroke="none" fill="rgb(100%,100%,100%)"/>
        <text x="3" y="12" fill="rgb(0%,0%,0%)" stroke="none" font-family="Helvetica" font-size="9">Port</text>
        <text x="71.75" y="12" fill="rgb(0%,0%,0%)" stroke="none" font-family="Helvetica" font-size="9">1</text>
        <rect x="0" y="15" width="129" height="14" stroke="none" fill="rgb(90.2%,90.2%,90.2%)"/>
        <text x="3" y="26" fill="rgb(0%,0%,0%)" stroke="none" font-family="Helvetica" font-size="9">IconDisplay</text>
        <text x="71.75" y="26" fill="rgb(0%,0%,0%)" stroke="none" font-family="Helvetica" font-size="9">Port number</text>
        <text x="3" y="40" fill="rgb(0%,0%,0%)" stroke="none" font-family="Helvetica" font-size="9">OutMin</text>
        <text x="71.75" y="40" fill="rgb(0%,0%,0%)" stroke="none" font-family="Helvetica" font-size="9">[]</text>
        <rect x="0" y="43" width="129" height="14" stroke="none" fill="rgb(90.2%,90.2%,90.2%)"/>
        <text x="3" y="54" fill="rgb(0%,0%,0%)" stroke="none" font-family="Helvetica" font-size="9">OutMax</text>
        <text x="71.75" y="54" fill="rgb(0%,0%,0%)" stroke="none" font-family="Helvetica" font-size="9">[]</text>
        <text x="3" y="68" fill="rgb(0%,0%,0%)" stroke="none" font-family="Helvetica" font-size="9">OutDataTypeStr</text>
        <text x="71.75" y="68" fill="rgb(0%,0%,0%)" stroke="none" font-family="Helvetica" font-size="9">Inherit: auto</text>
        <rect x="0" y="71" width="129" height="14" stroke="none" fill="rgb(90.2%,90.2%,90.2%)"/>
        <text x="3" y="82" fill="rgb(0%,0%,0%)" stroke="none" font-family="Helvetica" font-size="9">LockScale</text>
        <text x="71.75" y="82" fill="rgb(0%,0%,0%)" stroke="none" font-family="Helvetica" font-size="9">off</text>
        <text x="3" y="96" fill="rgb(0%,0%,0%)" stroke="none" font-family="Helvetica" font-size="9">PortDimensions</text>
        <text x="71.75" y="96" fill="rgb(0%,0%,0%)" stroke="none" font-family="Helvetica" font-size="9">-1</text>
        <rect x="0" y="99" width="129" height="14" stroke="none" fill="rgb(90.2%,90.2%,90.2%)"/>
        <text x="3" y="110" fill="rgb(0%,0%,0%)" stroke="none" font-family="Helvetica" font-size="9">VarSizeSig</text>
        <text x="71.75" y="110" fill="rgb(0%,0%,0%)" stroke="none" font-family="Helvetica" font-size="9">Inherit</text>
        <text x="3" y="124" fill="rgb(0%,0%,0%)" stroke="none" font-family="Helvetica" font-size="9">SampleTime</text>
        <text x="71.75" y="124" fill="rgb(0%,0%,0%)" stroke="none" font-family="Helvetica" font-size="9">-1</text>
        <rect x="0" y="127" width="129" height="14" stroke="none" fill="rgb(90.2%,90.2%,90.2%)"/>
        <text x="3" y="138" fill="rgb(0%,0%,0%)" stroke="none" font-family="Helvetica" font-size="9">SignalType</text>
        <text x="71.75" y="138" fill="rgb(0%,0%,0%)" stroke="none" font-family="Helvetica" font-size="9">auto</text>
        <text x="3" y="152" fill="rgb(0%,0%,0%)" stroke="none" font-family="Helvetica" font-size="9">SamplingMode</text>
        <text x="71.75" y="152" fill="rgb(0%,0%,0%)" stroke="none" font-family="Helvetica" font-size="9">auto</text>
        <rect x="0" y="0" width="129" height="156" rx="4" ry="4" stroke="rgb(0%,0%,0%)" fill="none"/>
      </g>
      <g id="CM340A_AdcDiagc/AdcDiagc/AdcDiagcPer1/NTC Fault Processing0/GetNtcQlfr/NtcQlfr" linkid="" onmouseover="showPropAndHighlight(evt)" onmouseout="hidePropAndUnhighlight(evt)" onclick="changeSys(evt)" highlight="fill">
        <title id="title.CM340A_AdcDiagc/AdcDiagc/AdcDiagcPer1/NTC Fault Processing0/GetNtcQlfr/NtcQlfr">NtcQlfr</title>
        <g fill="#ffffff" fill-opacity="1" stroke="none" transform="matrix(1,0,0,1,540,133)" font-family="MS Shell Dlg 2" font-size="8.25" font-weight="400" font-style="normal">
          <path vector-effect="none" fill-rule="nonzero" d="M7,0 L23,0 C26.866,0 30,3.13401 30,7 C30,10.866 26.866,14 23,14 L7,14 C3.13401,14 0,10.866 0,7 C0,3.13401 3.13401,0 7,0 z "/>
        </g>
        <g fill="#ffffff" fill-opacity="1" stroke="none" transform="matrix(1,0,0,1,540,133)" font-family="MS Shell Dlg 2" font-size="8.25" font-weight="400" font-style="normal" clip-path="url(#clip4800)">
          <defs>
            <clipPath id="clip4800">
              <path vector-effect="none" fill-rule="evenodd" d="M0,0 L30,0 L30,14 L0,14 L0,0z "/>
            </clipPath>
          </defs>
        </g>
        <g fill="#ffffff" fill-opacity="1" stroke="#000000" stroke-opacity="1" stroke-width="1" stroke-linecap="square" stroke-linejoin="bevel" transform="matrix(1,0,0,1,555,140)" font-family="Helvetica" font-size="7.5" font-weight="400" font-style="normal" clip-path="url(#clip4801)">
          <defs>
            <clipPath id="clip4801">
              <path vector-effect="none" fill-rule="evenodd" d="M-15,-7 L15,-7 L15,7 L-15,7 L-15,-7z "/>
            </clipPath>
          </defs>
        </g>
        <g fill="#ffffff" fill-opacity="1" stroke="#000000" stroke-opacity="1" stroke-width="1" stroke-linecap="square" stroke-linejoin="bevel" transform="matrix(1.33333,0,0,1.33333,555,140)" font-family="Helvetica" font-size="7.5" font-weight="400" font-style="normal" clip-path="url(#clip4802)">
          <defs>
            <clipPath id="clip4802">
              <path vector-effect="none" fill-rule="evenodd" d="M-11.25,-5.25 L11.25,-5.25 L11.25,5.25 L-11.25,5.25 L-11.25,-5.25z "/>
            </clipPath>
          </defs>
          <text textLength="4" fill="#000000" fill-opacity="1" stroke="none" xml:space="preserve" x="-2.25" y="2.25" font-family="Helvetica" font-size="7.5" font-weight="400" font-style="normal">1</text>
        </g>
        <g fill="#ffffff" fill-opacity="1" stroke="#000000" stroke-opacity="1" stroke-width="1" stroke-linecap="square" stroke-linejoin="bevel" transform="matrix(1,0,0,1,555,140)" font-family="Helvetica" font-size="7.5" font-weight="400" font-style="normal" clip-path="url(#clip4803)">
          <defs>
            <clipPath id="clip4803">
              <path vector-effect="none" fill-rule="evenodd" d="M-15,-7 L15,-7 L15,7 L-15,7 L-15,-7z "/>
            </clipPath>
          </defs>
        </g>
        <g fill="none" stroke="#000000" stroke-opacity="1" stroke-width="1" stroke-linecap="butt" stroke-linejoin="miter" stroke-miterlimit="2" transform="matrix(1,0,0,1,540,133)" font-family="MS Shell Dlg 2" font-size="8.25" font-weight="400" font-style="normal">
          <path vector-effect="none" fill-rule="nonzero" d="M7,0 L23,0 C26.866,0 30,3.13401 30,7 C30,10.866 26.866,14 23,14 L7,14 C3.13401,14 0,10.866 0,7 C0,3.13401 3.13401,0 7,0 z "/>
        </g>
        <g fill="none" stroke="none" transform="matrix(1,0,0,1,555,149)" font-family="MS Shell Dlg 2" font-size="8.25" font-weight="400" font-style="normal">
          <path vector-effect="none" fill-rule="evenodd" d="M-16.5,0 L16.5,0 L16.5,15 L-16.5,15 L-16.5,0z "/>
        </g>
        <g fill="none" stroke="#000000" stroke-opacity="1" stroke-width="1" stroke-linecap="square" stroke-linejoin="bevel" transform="matrix(0.25,0,0,0.25,538.5,149)" font-family="Helvetica" font-size="40" font-weight="400" font-style="normal" clip-path="url(#clip4804)">
          <defs>
            <clipPath id="clip4804">
              <path vector-effect="non-scaling-stroke" fill-rule="evenodd" d="M-1842,-484 L134,-484 L134,176 L-1842,176 L-1842,-484z "/>
            </clipPath>
          </defs>
          <text textLength="124" fill="#000000" fill-opacity="1" stroke="none" xml:space="preserve" x="4" y="41" font-family="Helvetica" font-size="40" font-weight="400" font-style="normal">NtcQlfr</text>
        </g>
      </g>
      <g id="prop.CM340A_AdcDiagc/AdcDiagc/AdcDiagcPer1/NTC Fault Processing0/GetNtcQlfr/NtcNr" class="proptable" display="none" pointer-events="none" extent_Height="198" extent_Width="188.25" preferred_X="115" preferred_Y="138">
        <rect x="0" y="0" width="188.25" height="198" rx="4" ry="4" stroke="none" fill="rgb(100%,100%,100%)"/>
        <text x="3" y="12" fill="rgb(0%,0%,0%)" stroke="none" font-family="Helvetica" font-size="9">Port</text>
        <text x="131" y="12" fill="rgb(0%,0%,0%)" stroke="none" font-family="Helvetica" font-size="9">1</text>
        <rect x="0" y="15" width="188.25" height="14" stroke="none" fill="rgb(90.2%,90.2%,90.2%)"/>
        <text x="3" y="26" fill="rgb(0%,0%,0%)" stroke="none" font-family="Helvetica" font-size="9">IconDisplay</text>
        <text x="131" y="26" fill="rgb(0%,0%,0%)" stroke="none" font-family="Helvetica" font-size="9">Port number</text>
        <text x="3" y="40" fill="rgb(0%,0%,0%)" stroke="none" font-family="Helvetica" font-size="9">OutputFunctionCall</text>
        <text x="131" y="40" fill="rgb(0%,0%,0%)" stroke="none" font-family="Helvetica" font-size="9">off</text>
        <rect x="0" y="43" width="188.25" height="14" stroke="none" fill="rgb(90.2%,90.2%,90.2%)"/>
        <text x="3" y="54" fill="rgb(0%,0%,0%)" stroke="none" font-family="Helvetica" font-size="9">OutMin</text>
        <text x="131" y="54" fill="rgb(0%,0%,0%)" stroke="none" font-family="Helvetica" font-size="9">[]</text>
        <text x="3" y="68" fill="rgb(0%,0%,0%)" stroke="none" font-family="Helvetica" font-size="9">OutMax</text>
        <text x="131" y="68" fill="rgb(0%,0%,0%)" stroke="none" font-family="Helvetica" font-size="9">[]</text>
        <rect x="0" y="71" width="188.25" height="14" stroke="none" fill="rgb(90.2%,90.2%,90.2%)"/>
        <text x="3" y="82" fill="rgb(0%,0%,0%)" stroke="none" font-family="Helvetica" font-size="9">OutDataTypeStr</text>
        <text x="131" y="82" fill="rgb(0%,0%,0%)" stroke="none" font-family="Helvetica" font-size="9">Inherit: auto</text>
        <text x="3" y="96" fill="rgb(0%,0%,0%)" stroke="none" font-family="Helvetica" font-size="9">LockScale</text>
        <text x="131" y="96" fill="rgb(0%,0%,0%)" stroke="none" font-family="Helvetica" font-size="9">off</text>
        <rect x="0" y="99" width="188.25" height="14" stroke="none" fill="rgb(90.2%,90.2%,90.2%)"/>
        <text x="3" y="110" fill="rgb(0%,0%,0%)" stroke="none" font-family="Helvetica" font-size="9">PortDimensions</text>
        <text x="131" y="110" fill="rgb(0%,0%,0%)" stroke="none" font-family="Helvetica" font-size="9">-1</text>
        <text x="3" y="124" fill="rgb(0%,0%,0%)" stroke="none" font-family="Helvetica" font-size="9">VarSizeSig</text>
        <text x="131" y="124" fill="rgb(0%,0%,0%)" stroke="none" font-family="Helvetica" font-size="9">Inherit</text>
        <rect x="0" y="127" width="188.25" height="14" stroke="none" fill="rgb(90.2%,90.2%,90.2%)"/>
        <text x="3" y="138" fill="rgb(0%,0%,0%)" stroke="none" font-family="Helvetica" font-size="9">SampleTime</text>
        <text x="131" y="138" fill="rgb(0%,0%,0%)" stroke="none" font-family="Helvetica" font-size="9">-1</text>
        <text x="3" y="152" fill="rgb(0%,0%,0%)" stroke="none" font-family="Helvetica" font-size="9">SignalType</text>
        <text x="131" y="152" fill="rgb(0%,0%,0%)" stroke="none" font-family="Helvetica" font-size="9">auto</text>
        <rect x="0" y="155" width="188.25" height="14" stroke="none" fill="rgb(90.2%,90.2%,90.2%)"/>
        <text x="3" y="166" fill="rgb(0%,0%,0%)" stroke="none" font-family="Helvetica" font-size="9">SamplingMode</text>
        <text x="131" y="166" fill="rgb(0%,0%,0%)" stroke="none" font-family="Helvetica" font-size="9">auto</text>
        <text x="3" y="180" fill="rgb(0%,0%,0%)" stroke="none" font-family="Helvetica" font-size="9">LatchByDelayingOutsideSignal</text>
        <text x="131" y="180" fill="rgb(0%,0%,0%)" stroke="none" font-family="Helvetica" font-size="9">off</text>
        <rect x="0" y="183" width="188.25" height="14" stroke="none" fill="rgb(90.2%,90.2%,90.2%)"/>
        <text x="3" y="194" fill="rgb(0%,0%,0%)" stroke="none" font-family="Helvetica" font-size="9">LatchInputForFeedbackSignals</text>
        <text x="131" y="194" fill="rgb(0%,0%,0%)" stroke="none" font-family="Helvetica" font-size="9">off</text>
        <rect x="0" y="0" width="188.25" height="198" rx="4" ry="4" stroke="rgb(0%,0%,0%)" fill="none"/>
      </g>
      <g id="CM340A_AdcDiagc/AdcDiagc/AdcDiagcPer1/NTC Fault Processing0/GetNtcQlfr/NtcNr" linkid="" onmouseover="showPropAndHighlight(evt)" onmouseout="hidePropAndUnhighlight(evt)" onclick="changeSys(evt)" highlight="fill">
        <title id="title.CM340A_AdcDiagc/AdcDiagc/AdcDiagcPer1/NTC Fault Processing0/GetNtcQlfr/NtcNr">NtcNr</title>
        <g fill="#ffffff" fill-opacity="1" stroke="none" transform="matrix(1,0,0,1,80,133)" font-family="MS Shell Dlg 2" font-size="8.25" font-weight="400" font-style="normal">
          <path vector-effect="none" fill-rule="nonzero" d="M7,0 L23,0 C26.866,0 30,3.13401 30,7 C30,10.866 26.866,14 23,14 L7,14 C3.13401,14 0,10.866 0,7 C0,3.13401 3.13401,0 7,0 z "/>
        </g>
        <g fill="#ffffff" fill-opacity="1" stroke="none" transform="matrix(1,0,0,1,80,133)" font-family="MS Shell Dlg 2" font-size="8.25" font-weight="400" font-style="normal" clip-path="url(#clip4805)">
          <defs>
            <clipPath id="clip4805">
              <path vector-effect="none" fill-rule="evenodd" d="M0,0 L30,0 L30,14 L0,14 L0,0z "/>
            </clipPath>
          </defs>
        </g>
        <g fill="#ffffff" fill-opacity="1" stroke="#000000" stroke-opacity="1" stroke-width="1" stroke-linecap="square" stroke-linejoin="bevel" transform="matrix(1,0,0,1,95,140)" font-family="Helvetica" font-size="7.5" font-weight="400" font-style="normal" clip-path="url(#clip4806)">
          <defs>
            <clipPath id="clip4806">
              <path vector-effect="none" fill-rule="evenodd" d="M-15,-7 L15,-7 L15,7 L-15,7 L-15,-7z "/>
            </clipPath>
          </defs>
        </g>
        <g fill="#ffffff" fill-opacity="1" stroke="#000000" stroke-opacity="1" stroke-width="1" stroke-linecap="square" stroke-linejoin="bevel" transform="matrix(1.33333,0,0,1.33333,95,140)" font-family="Helvetica" font-size="7.5" font-weight="400" font-style="normal" clip-path="url(#clip4807)">
          <defs>
            <clipPath id="clip4807">
              <path vector-effect="none" fill-rule="evenodd" d="M-11.25,-5.25 L11.25,-5.25 L11.25,5.25 L-11.25,5.25 L-11.25,-5.25z "/>
            </clipPath>
          </defs>
          <text textLength="4" fill="#000000" fill-opacity="1" stroke="none" xml:space="preserve" x="-2.25" y="2.25" font-family="Helvetica" font-size="7.5" font-weight="400" font-style="normal">1</text>
        </g>
        <g fill="#ffffff" fill-opacity="1" stroke="#000000" stroke-opacity="1" stroke-width="1" stroke-linecap="square" stroke-linejoin="bevel" transform="matrix(1,0,0,1,95,140)" font-family="Helvetica" font-size="7.5" font-weight="400" font-style="normal" clip-path="url(#clip4808)">
          <defs>
            <clipPath id="clip4808">
              <path vector-effect="none" fill-rule="evenodd" d="M-15,-7 L15,-7 L15,7 L-15,7 L-15,-7z "/>
            </clipPath>
          </defs>
        </g>
        <g fill="none" stroke="#000000" stroke-opacity="1" stroke-width="1" stroke-linecap="butt" stroke-linejoin="miter" stroke-miterlimit="2" transform="matrix(1,0,0,1,80,133)" font-family="MS Shell Dlg 2" font-size="8.25" font-weight="400" font-style="normal">
          <path vector-effect="none" fill-rule="nonzero" d="M7,0 L23,0 C26.866,0 30,3.13401 30,7 C30,10.866 26.866,14 23,14 L7,14 C3.13401,14 0,10.866 0,7 C0,3.13401 3.13401,0 7,0 z "/>
        </g>
        <g fill="none" stroke="none" transform="matrix(1,0,0,1,95,149)" font-family="MS Shell Dlg 2" font-size="8.25" font-weight="400" font-style="normal">
          <path vector-effect="none" fill-rule="evenodd" d="M-13.75,0 L13.75,0 L13.75,15 L-13.75,15 L-13.75,0z "/>
        </g>
        <g fill="none" stroke="#000000" stroke-opacity="1" stroke-width="1" stroke-linecap="square" stroke-linejoin="bevel" transform="matrix(0.25,0,0,0.25,81.25,149)" font-family="Helvetica" font-size="40" font-weight="400" font-style="normal" clip-path="url(#clip4809)">
          <defs>
            <clipPath id="clip4809">
              <path vector-effect="non-scaling-stroke" fill-rule="evenodd" d="M-13,-484 L1963,-484 L1963,176 L-13,176 L-13,-484z "/>
            </clipPath>
          </defs>
          <text textLength="102" fill="#000000" fill-opacity="1" stroke="none" xml:space="preserve" x="4" y="41" font-family="Helvetica" font-size="40" font-weight="400" font-style="normal">NtcNr</text>
        </g>
        <g fill="none" stroke="none" transform="matrix(1,0,0,1,112,138)" font-family="MS Shell Dlg 2" font-size="8.25" font-weight="400" font-style="normal">
          <path vector-effect="none" fill-rule="evenodd" d="M0,-14 L30,-14 L30,0 L0,0 L0,-14z "/>
        </g>
        <g fill="none" stroke="#000000" stroke-opacity="1" stroke-width="1" stroke-linecap="square" stroke-linejoin="bevel" transform="matrix(0.25,0,0,0.25,112,124)" font-family="Helvetica" font-size="36" font-weight="400" font-style="normal" clip-path="url(#clip4810)">
          <defs>
            <clipPath id="clip4810">
              <path vector-effect="non-scaling-stroke" fill-rule="evenodd" d="M-136,-384 L1840,-384 L1840,276 L-136,276 L-136,-384z "/>
            </clipPath>
          </defs>
          <text textLength="112" fill="#000000" fill-opacity="1" stroke="none" xml:space="preserve" x="4" y="38" font-family="Helvetica" font-size="36" font-weight="400" font-style="normal">NtcNr1</text>
        </g>
      </g>
      <g id="CM340A_AdcDiagc/AdcDiagc/AdcDiagcPer1/NTC Fault Processing0/GetNtcQlfr/Terminator" linkid="" onmouseover="showPropAndHighlight(evt)" onmouseout="hidePropAndUnhighlight(evt)" onclick="changeSys(evt)" highlight="fill">
        <title id="title.CM340A_AdcDiagc/AdcDiagc/AdcDiagcPer1/NTC Fault Processing0/GetNtcQlfr/Terminator">Terminator</title>
        <g fill="#ffffff" fill-opacity="1" stroke="none" transform="matrix(1,0,0,1,170,130)" font-family="MS Shell Dlg 2" font-size="8.25" font-weight="400" font-style="normal">
          <path vector-effect="none" fill-rule="evenodd" d="M0,0 L20,0 L20,20 L0,20 L0,0z "/>
        </g>
        <g fill="#ffffff" fill-opacity="1" stroke="none" transform="matrix(1,0,0,1,170,130)" font-family="MS Shell Dlg 2" font-size="8.25" font-weight="400" font-style="normal" clip-path="url(#clip4811)">
          <defs>
            <clipPath id="clip4811">
              <path vector-effect="none" fill-rule="evenodd" d="M0,0 L20,0 L20,20 L0,20 L0,0z "/>
            </clipPath>
          </defs>
        </g>
        <g fill="#ffffff" fill-opacity="1" stroke="#000000" stroke-opacity="1" stroke-width="1" stroke-linecap="square" stroke-linejoin="bevel" transform="matrix(1,0,0,1,0.5,0.5)" font-family="MS Shell Dlg 2" font-size="8.25" font-weight="400" font-style="normal" clip-path="url(#clip4812)">
          <defs>
            <clipPath id="clip4812">
              <path vector-effect="none" fill-rule="evenodd" d="M169.5,129.5 L189.5,129.5 L189.5,149.5 L169.5,149.5 L169.5,129.5z "/>
            </clipPath>
          </defs>
          <polyline fill="none" vector-effect="none" points="176,145 186,145 "/>
        </g>
        <g fill="#ffffff" fill-opacity="1" stroke="#000000" stroke-opacity="1" stroke-width="1" stroke-linecap="square" stroke-linejoin="bevel" transform="matrix(1,0,0,1,0.5,0.5)" font-family="MS Shell Dlg 2" font-size="8.25" font-weight="400" font-style="normal" clip-path="url(#clip4812)">
          <polyline fill="none" vector-effect="none" points="186,145 186,135 "/>
        </g>
        <g fill="#ffffff" fill-opacity="1" stroke="#000000" stroke-opacity="1" stroke-width="1" stroke-linecap="square" stroke-linejoin="bevel" transform="matrix(1,0,0,1,0.5,0.5)" font-family="MS Shell Dlg 2" font-size="8.25" font-weight="400" font-style="normal" clip-path="url(#clip4812)">
          <polyline fill="none" vector-effect="none" points="186,135 176,135 "/>
        </g>
        <g fill="#ffffff" fill-opacity="1" stroke="#000000" stroke-opacity="1" stroke-width="1" stroke-linecap="square" stroke-linejoin="bevel" transform="matrix(1,0,0,1,0.5,0.5)" font-family="MS Shell Dlg 2" font-size="8.25" font-weight="400" font-style="normal" clip-path="url(#clip4812)">
          <polyline fill="none" vector-effect="none" points="172,140 186,140 "/>
        </g>
        <g fill="none" stroke="#000000" stroke-opacity="1" stroke-width="1" stroke-linecap="butt" stroke-linejoin="miter" stroke-miterlimit="2" transform="matrix(1,0,0,1,170,130)" font-family="MS Shell Dlg 2" font-size="8.25" font-weight="400" font-style="normal">
          <path vector-effect="none" fill-rule="evenodd" d="M0,0 L20,0 L20,20 L0,20 L0,0z "/>
        </g>
        <g fill="none" stroke="none" transform="matrix(1,0,0,1,180,152)" font-family="MS Shell Dlg 2" font-size="8.25" font-weight="400" font-style="normal">
          <path vector-effect="none" fill-rule="evenodd" d="M-24.25,0 L24.25,0 L24.25,15 L-24.25,15 L-24.25,0z "/>
        </g>
        <g fill="none" stroke="#000000" stroke-opacity="1" stroke-width="1" stroke-linecap="square" stroke-linejoin="bevel" transform="matrix(0.25,0,0,0.25,155.75,152)" font-family="Helvetica" font-size="40" font-weight="400" font-style="normal" clip-path="url(#clip4813)">
          <defs>
            <clipPath id="clip4813">
              <path vector-effect="non-scaling-stroke" fill-rule="evenodd" d="M-311,-496 L1665,-496 L1665,164 L-311,164 L-311,-496z "/>
            </clipPath>
          </defs>
          <text textLength="186" fill="#000000" fill-opacity="1" stroke="none" xml:space="preserve" x="4" y="41" font-family="Helvetica" font-size="40" font-weight="400" font-style="normal">Terminator</text>
        </g>
      </g>
      <g id="prop.CM340A_AdcDiagc/AdcDiagc/AdcDiagcPer1/NTC Fault Processing0/GetNtcQlfr/Data Store Read" class="proptable" display="none" pointer-events="none" extent_Height="44" extent_Width="166.5" preferred_X="450" preferred_Y="122">
        <rect x="0" y="0" width="166.5" height="44" rx="4" ry="4" stroke="none" fill="rgb(100%,100%,100%)"/>
        <text x="3" y="12" fill="rgb(0%,0%,0%)" stroke="none" font-family="Helvetica" font-size="9">DataStoreName</text>
        <text x="85.75" y="12" fill="rgb(0%,0%,0%)" stroke="none" font-family="Helvetica" font-size="9">Adc0DynDiagcQlfr</text>
        <rect x="0" y="15" width="166.5" height="14" stroke="none" fill="rgb(90.2%,90.2%,90.2%)"/>
        <text x="3" y="26" fill="rgb(0%,0%,0%)" stroke="none" font-family="Helvetica" font-size="9">SampleTime</text>
        <text x="85.75" y="26" fill="rgb(0%,0%,0%)" stroke="none" font-family="Helvetica" font-size="9">-1</text>
        <text x="3" y="40" fill="rgb(0%,0%,0%)" stroke="none" font-family="Helvetica" font-size="9">DataStoreElements</text>
        <text x="85.75" y="40" fill="rgb(0%,0%,0%)" stroke="none" font-family="Helvetica" font-size="9"/>
        <rect x="0" y="0" width="166.5" height="44" rx="4" ry="4" stroke="rgb(0%,0%,0%)" fill="none"/>
      </g>
      <g id="CM340A_AdcDiagc/AdcDiagc/AdcDiagcPer1/NTC Fault Processing0/GetNtcQlfr/Data Store Read" linkid="" onmouseover="showPropAndHighlight(evt)" onmouseout="hidePropAndUnhighlight(evt)" onclick="changeSys(evt)" highlight="fill">
        <title id="title.CM340A_AdcDiagc/AdcDiagc/AdcDiagcPer1/NTC Fault Processing0/GetNtcQlfr/Data Store Read">Data Store Read</title>
        <g fill="#ffffff" fill-opacity="1" stroke="none" transform="matrix(1,0,0,1,240,117)" font-family="MS Shell Dlg 2" font-size="8.25" font-weight="400" font-style="normal">
          <path vector-effect="none" fill-rule="evenodd" d="M0,0 L205,0 L205,46 L0,46 L0,0z "/>
        </g>
        <g fill="#ffffff" fill-opacity="1" stroke="none" transform="matrix(1,0,0,1,240,117)" font-family="MS Shell Dlg 2" font-size="8.25" font-weight="400" font-style="normal" clip-path="url(#clip4814)">
          <defs>
            <clipPath id="clip4814">
              <path vector-effect="none" fill-rule="evenodd" d="M0,0 L205,0 L205,46 L0,46 L0,0z "/>
            </clipPath>
          </defs>
        </g>
        <g fill="#ffffff" fill-opacity="1" stroke="#000000" stroke-opacity="1" stroke-width="1" stroke-linecap="square" stroke-linejoin="bevel" transform="matrix(1,0,0,1,0.5,0.5)" font-family="MS Shell Dlg 2" font-size="8.25" font-weight="400" font-style="normal" clip-path="url(#clip4815)">
          <defs>
            <clipPath id="clip4815">
              <path vector-effect="none" fill-rule="evenodd" d="M239.5,116.5 L444.5,116.5 L444.5,162.5 L239.5,162.5 L239.5,116.5z "/>
            </clipPath>
          </defs>
          <polyline fill="none" vector-effect="none" points="260,159 424,159 "/>
        </g>
        <g fill="#ffffff" fill-opacity="1" stroke="#000000" stroke-opacity="1" stroke-width="1" stroke-linecap="square" stroke-linejoin="bevel" transform="matrix(1,0,0,1,0.5,0.5)" font-family="MS Shell Dlg 2" font-size="8.25" font-weight="400" font-style="normal" clip-path="url(#clip4815)">
          <polyline fill="none" vector-effect="none" points="260,122 424,122 "/>
        </g>
        <g fill="#ffffff" fill-opacity="1" stroke="#000000" stroke-opacity="1" stroke-width="1" stroke-linecap="square" stroke-linejoin="bevel" transform="matrix(1,0,0,1,342,140)" font-family="Helvetica" font-size="7.5" font-weight="400" font-style="normal" clip-path="url(#clip4816)">
          <defs>
            <clipPath id="clip4816">
              <path vector-effect="none" fill-rule="evenodd" d="M-102,-23 L103,-23 L103,23 L-102,23 L-102,-23z "/>
            </clipPath>
          </defs>
        </g>
        <g fill="#ffffff" fill-opacity="1" stroke="#000000" stroke-opacity="1" stroke-width="1" stroke-linecap="square" stroke-linejoin="bevel" transform="matrix(1.33333,0,0,1.33333,342,140)" font-family="Helvetica" font-size="7.5" font-weight="400" font-style="normal" clip-path="url(#clip4817)">
          <defs>
            <clipPath id="clip4817">
              <path vector-effect="none" fill-rule="evenodd" d="M-76.5,-17.25 L77.25,-17.25 L77.25,17.25 L-76.5,17.25 L-76.5,-17.25z "/>
            </clipPath>
          </defs>
          <text textLength="64" fill="#000000" fill-opacity="1" stroke="none" xml:space="preserve" x="-32.25" y="2.25" font-family="Helvetica" font-size="7.5" font-weight="400" font-style="normal">Adc0DynDiagcQlfr</text>
        </g>
        <g fill="#ffffff" fill-opacity="1" stroke="#000000" stroke-opacity="1" stroke-width="1" stroke-linecap="square" stroke-linejoin="bevel" transform="matrix(1,0,0,1,342,140)" font-family="Helvetica" font-size="7.5" font-weight="400" font-style="normal" clip-path="url(#clip4818)">
          <defs>
            <clipPath id="clip4818">
              <path vector-effect="none" fill-rule="evenodd" d="M-102,-23 L103,-23 L103,23 L-102,23 L-102,-23z "/>
            </clipPath>
          </defs>
        </g>
        <g fill="none" stroke="#000000" stroke-opacity="1" stroke-width="1" stroke-linecap="butt" stroke-linejoin="miter" stroke-miterlimit="2" transform="matrix(1,0,0,1,240,117)" font-family="MS Shell Dlg 2" font-size="8.25" font-weight="400" font-style="normal">
          <path vector-effect="none" fill-rule="evenodd" d="M0,0 L205,0 L205,46 L0,46 L0,0z "/>
        </g>
        <g fill="none" stroke="none" transform="matrix(1,0,0,1,342.5,165)" font-family="MS Shell Dlg 2" font-size="8.25" font-weight="400" font-style="normal">
          <path vector-effect="none" fill-rule="evenodd" d="M-24.75,0 L24.75,0 L24.75,28 L-24.75,28 L-24.75,0z "/>
        </g>
        <g fill="none" stroke="#000000" stroke-opacity="1" stroke-width="1" stroke-linecap="square" stroke-linejoin="bevel" transform="matrix(0.25,0,0,0.25,317.75,165)" font-family="Helvetica" font-size="40" font-weight="400" font-style="normal" clip-path="url(#clip4819)">
          <defs>
            <clipPath id="clip4819">
              <path vector-effect="non-scaling-stroke" fill-rule="evenodd" d="M-959,-548 L1017,-548 L1017,112 L-959,112 L-959,-548z "/>
            </clipPath>
          </defs>
          <text textLength="190" fill="#000000" fill-opacity="1" stroke="none" xml:space="preserve" x="4" y="41" font-family="Helvetica" font-size="40" font-weight="400" font-style="normal">Data Store</text>
          <text textLength="95" fill="#000000" fill-opacity="1" stroke="none" xml:space="preserve" x="51.5" y="93" font-family="Helvetica" font-size="40" font-weight="400" font-style="normal">Read</text>
        </g>
        <g fill="none" stroke="none" transform="matrix(1,0,0,1,447,138)" font-family="MS Shell Dlg 2" font-size="8.25" font-weight="400" font-style="normal">
          <path vector-effect="none" fill-rule="evenodd" d="M0,-14 L20.75,-14 L20.75,0 L0,0 L0,-14z "/>
        </g>
        <g fill="none" stroke="#000000" stroke-opacity="1" stroke-width="1" stroke-linecap="square" stroke-linejoin="bevel" transform="matrix(0.25,0,0,0.25,447,124)" font-family="Helvetica" font-size="36" font-weight="400" font-style="normal" clip-path="url(#clip4820)">
          <defs>
            <clipPath id="clip4820">
              <path vector-effect="non-scaling-stroke" fill-rule="evenodd" d="M-1476,-384 L500,-384 L500,276 L-1476,276 L-1476,-384z "/>
            </clipPath>
          </defs>
          <text textLength="75" fill="#000000" fill-opacity="1" stroke="none" xml:space="preserve" x="4" y="38" font-family="Helvetica" font-size="36" font-weight="400" font-style="normal">uint8</text>
        </g>
      </g>
      <g id="prop.CM340A_AdcDiagc/AdcDiagc/AdcDiagcPer1/NTC Fault Processing0/GetNtcQlfr/_uniq_id_494" class="proptable" display="none" pointer-events="none" extent_Height="170" extent_Width="195" preferred_X="5" preferred_Y="5">
        <rect x="0" y="0" width="195" height="170" rx="4" ry="4" stroke="none" fill="rgb(100%,100%,100%)"/>
        <text x="3" y="12" fill="rgb(0%,0%,0%)" stroke="none" font-family="Helvetica" font-size="9">DataLogging</text>
        <text x="120.75" y="12" fill="rgb(0%,0%,0%)" stroke="none" font-family="Helvetica" font-size="9">0</text>
        <rect x="0" y="15" width="195" height="14" stroke="none" fill="rgb(90.2%,90.2%,90.2%)"/>
        <text x="3" y="26" fill="rgb(0%,0%,0%)" stroke="none" font-family="Helvetica" font-size="9">DataLoggingNameMode</text>
        <text x="120.75" y="26" fill="rgb(0%,0%,0%)" stroke="none" font-family="Helvetica" font-size="9">Use signal name</text>
        <text x="3" y="40" fill="rgb(0%,0%,0%)" stroke="none" font-family="Helvetica" font-size="9">UserSpecifiedLogName</text>
        <text x="120.75" y="40" fill="rgb(0%,0%,0%)" stroke="none" font-family="Helvetica" font-size="9"/>
        <rect x="0" y="43" width="195" height="14" stroke="none" fill="rgb(90.2%,90.2%,90.2%)"/>
        <text x="3" y="54" fill="rgb(0%,0%,0%)" stroke="none" font-family="Helvetica" font-size="9">DataLoggingDecimateData</text>
        <text x="120.75" y="54" fill="rgb(0%,0%,0%)" stroke="none" font-family="Helvetica" font-size="9">0</text>
        <text x="3" y="68" fill="rgb(0%,0%,0%)" stroke="none" font-family="Helvetica" font-size="9">DataLoggingDecimation</text>
        <text x="120.75" y="68" fill="rgb(0%,0%,0%)" stroke="none" font-family="Helvetica" font-size="9">2</text>
        <rect x="0" y="71" width="195" height="14" stroke="none" fill="rgb(90.2%,90.2%,90.2%)"/>
        <text x="3" y="82" fill="rgb(0%,0%,0%)" stroke="none" font-family="Helvetica" font-size="9">DataLoggingLimitDataPoints</text>
        <text x="120.75" y="82" fill="rgb(0%,0%,0%)" stroke="none" font-family="Helvetica" font-size="9">0</text>
        <text x="3" y="96" fill="rgb(0%,0%,0%)" stroke="none" font-family="Helvetica" font-size="9">DataLoggingMaxPoints</text>
        <text x="120.75" y="96" fill="rgb(0%,0%,0%)" stroke="none" font-family="Helvetica" font-size="9">5000</text>
        <rect x="0" y="99" width="195" height="14" stroke="none" fill="rgb(90.2%,90.2%,90.2%)"/>
        <text x="3" y="110" fill="rgb(0%,0%,0%)" stroke="none" font-family="Helvetica" font-size="9">TestPoint</text>
        <text x="120.75" y="110" fill="rgb(0%,0%,0%)" stroke="none" font-family="Helvetica" font-size="9">0</text>
        <text x="3" y="124" fill="rgb(0%,0%,0%)" stroke="none" font-family="Helvetica" font-size="9">SignalPropagation</text>
        <text x="120.75" y="124" fill="rgb(0%,0%,0%)" stroke="none" font-family="Helvetica" font-size="9">off</text>
        <rect x="0" y="127" width="195" height="14" stroke="none" fill="rgb(90.2%,90.2%,90.2%)"/>
        <text x="3" y="138" fill="rgb(0%,0%,0%)" stroke="none" font-family="Helvetica" font-size="9">MustResolveToSignalObject</text>
        <text x="120.75" y="138" fill="rgb(0%,0%,0%)" stroke="none" font-family="Helvetica" font-size="9">0</text>
        <text x="3" y="152" fill="rgb(0%,0%,0%)" stroke="none" font-family="Helvetica" font-size="9">StorageClass</text>
        <text x="120.75" y="152" fill="rgb(0%,0%,0%)" stroke="none" font-family="Helvetica" font-size="9">Auto</text>
        <rect x="0" y="155" width="195" height="14" stroke="none" fill="rgb(90.2%,90.2%,90.2%)"/>
        <text x="3" y="166" fill="rgb(0%,0%,0%)" stroke="none" font-family="Helvetica" font-size="9">RTWStorageTypeQualifier</text>
        <text x="120.75" y="166" fill="rgb(0%,0%,0%)" stroke="none" font-family="Helvetica" font-size="9"/>
        <rect x="0" y="0" width="195" height="170" rx="4" ry="4" stroke="rgb(0%,0%,0%)" fill="none"/>
      </g>
      <g id="CM340A_AdcDiagc/AdcDiagc/AdcDiagcPer1/NTC Fault Processing0/GetNtcQlfr/_uniq_id_494" linkid="" onmouseover="showPropAndHighlight(evt)" onmouseout="hidePropAndUnhighlight(evt)" onclick="changeSys(evt)" highlight="fill,stroke">
        <title id="title.CM340A_AdcDiagc/AdcDiagc/AdcDiagcPer1/NTC Fault Processing0/GetNtcQlfr/_uniq_id_494"/>
        <g fill="#000000" fill-opacity="1" stroke="none" transform="matrix(1,0,0,1,170,140)" font-family="MS Shell Dlg 2" font-size="8.25" font-weight="400" font-style="normal">
          <path vector-effect="none" fill-rule="nonzero" d="M0,0 L-8,-4 L-8,4 L0,0z "/>
        </g>
        <g fill="none" stroke="#000000" stroke-opacity="1" stroke-width="1" stroke-linecap="butt" stroke-linejoin="miter" stroke-miterlimit="2" transform="matrix(1,0,0,1,0,0)" font-family="MS Shell Dlg 2" font-size="8.25" font-weight="400" font-style="normal">
          <path vector-effect="none" fill-rule="evenodd" d="M110,140 L162,140"/>
        </g>
      </g>
      <g id="prop.CM340A_AdcDiagc/AdcDiagc/AdcDiagcPer1/NTC Fault Processing0/GetNtcQlfr/_uniq_id_495" class="proptable" display="none" pointer-events="none" extent_Height="170" extent_Width="195" preferred_X="5" preferred_Y="5">
        <rect x="0" y="0" width="195" height="170" rx="4" ry="4" stroke="none" fill="rgb(100%,100%,100%)"/>
        <text x="3" y="12" fill="rgb(0%,0%,0%)" stroke="none" font-family="Helvetica" font-size="9">DataLogging</text>
        <text x="120.75" y="12" fill="rgb(0%,0%,0%)" stroke="none" font-family="Helvetica" font-size="9">0</text>
        <rect x="0" y="15" width="195" height="14" stroke="none" fill="rgb(90.2%,90.2%,90.2%)"/>
        <text x="3" y="26" fill="rgb(0%,0%,0%)" stroke="none" font-family="Helvetica" font-size="9">DataLoggingNameMode</text>
        <text x="120.75" y="26" fill="rgb(0%,0%,0%)" stroke="none" font-family="Helvetica" font-size="9">Use signal name</text>
        <text x="3" y="40" fill="rgb(0%,0%,0%)" stroke="none" font-family="Helvetica" font-size="9">UserSpecifiedLogName</text>
        <text x="120.75" y="40" fill="rgb(0%,0%,0%)" stroke="none" font-family="Helvetica" font-size="9"/>
        <rect x="0" y="43" width="195" height="14" stroke="none" fill="rgb(90.2%,90.2%,90.2%)"/>
        <text x="3" y="54" fill="rgb(0%,0%,0%)" stroke="none" font-family="Helvetica" font-size="9">DataLoggingDecimateData</text>
        <text x="120.75" y="54" fill="rgb(0%,0%,0%)" stroke="none" font-family="Helvetica" font-size="9">0</text>
        <text x="3" y="68" fill="rgb(0%,0%,0%)" stroke="none" font-family="Helvetica" font-size="9">DataLoggingDecimation</text>
        <text x="120.75" y="68" fill="rgb(0%,0%,0%)" stroke="none" font-family="Helvetica" font-size="9">2</text>
        <rect x="0" y="71" width="195" height="14" stroke="none" fill="rgb(90.2%,90.2%,90.2%)"/>
        <text x="3" y="82" fill="rgb(0%,0%,0%)" stroke="none" font-family="Helvetica" font-size="9">DataLoggingLimitDataPoints</text>
        <text x="120.75" y="82" fill="rgb(0%,0%,0%)" stroke="none" font-family="Helvetica" font-size="9">0</text>
        <text x="3" y="96" fill="rgb(0%,0%,0%)" stroke="none" font-family="Helvetica" font-size="9">DataLoggingMaxPoints</text>
        <text x="120.75" y="96" fill="rgb(0%,0%,0%)" stroke="none" font-family="Helvetica" font-size="9">5000</text>
        <rect x="0" y="99" width="195" height="14" stroke="none" fill="rgb(90.2%,90.2%,90.2%)"/>
        <text x="3" y="110" fill="rgb(0%,0%,0%)" stroke="none" font-family="Helvetica" font-size="9">TestPoint</text>
        <text x="120.75" y="110" fill="rgb(0%,0%,0%)" stroke="none" font-family="Helvetica" font-size="9">0</text>
        <text x="3" y="124" fill="rgb(0%,0%,0%)" stroke="none" font-family="Helvetica" font-size="9">SignalPropagation</text>
        <text x="120.75" y="124" fill="rgb(0%,0%,0%)" stroke="none" font-family="Helvetica" font-size="9">off</text>
        <rect x="0" y="127" width="195" height="14" stroke="none" fill="rgb(90.2%,90.2%,90.2%)"/>
        <text x="3" y="138" fill="rgb(0%,0%,0%)" stroke="none" font-family="Helvetica" font-size="9">MustResolveToSignalObject</text>
        <text x="120.75" y="138" fill="rgb(0%,0%,0%)" stroke="none" font-family="Helvetica" font-size="9">0</text>
        <text x="3" y="152" fill="rgb(0%,0%,0%)" stroke="none" font-family="Helvetica" font-size="9">StorageClass</text>
        <text x="120.75" y="152" fill="rgb(0%,0%,0%)" stroke="none" font-family="Helvetica" font-size="9">Auto</text>
        <rect x="0" y="155" width="195" height="14" stroke="none" fill="rgb(90.2%,90.2%,90.2%)"/>
        <text x="3" y="166" fill="rgb(0%,0%,0%)" stroke="none" font-family="Helvetica" font-size="9">RTWStorageTypeQualifier</text>
        <text x="120.75" y="166" fill="rgb(0%,0%,0%)" stroke="none" font-family="Helvetica" font-size="9"/>
        <rect x="0" y="0" width="195" height="170" rx="4" ry="4" stroke="rgb(0%,0%,0%)" fill="none"/>
      </g>
      <g id="CM340A_AdcDiagc/AdcDiagc/AdcDiagcPer1/NTC Fault Processing0/GetNtcQlfr/_uniq_id_495" linkid="" onmouseover="showPropAndHighlight(evt)" onmouseout="hidePropAndUnhighlight(evt)" onclick="changeSys(evt)" highlight="fill,stroke">
        <title id="title.CM340A_AdcDiagc/AdcDiagc/AdcDiagcPer1/NTC Fault Processing0/GetNtcQlfr/_uniq_id_495"/>
        <g fill="#000000" fill-opacity="1" stroke="none" transform="matrix(1,0,0,1,540,140)" font-family="MS Shell Dlg 2" font-size="8.25" font-weight="400" font-style="normal">
          <path vector-effect="none" fill-rule="nonzero" d="M0,0 L-8,-4 L-8,4 L0,0z "/>
        </g>
        <g fill="none" stroke="#000000" stroke-opacity="1" stroke-width="1" stroke-linecap="butt" stroke-linejoin="miter" stroke-miterlimit="2" transform="matrix(1,0,0,1,0,0)" font-family="MS Shell Dlg 2" font-size="8.25" font-weight="400" font-style="normal">
          <path vector-effect="none" fill-rule="evenodd" d="M445,140 L532,140"/>
        </g>
      </g>
    </g>
  </g>
</svg>
