<?xml version="1.0" encoding="UTF-8" standalone="no"?>
<svg xmlns="http://www.w3.org/2000/svg" xmlns:xlink="http://www.w3.org/1999/xlink" version="1.2" baseProfile="tiny" class="canvas" display="inline" height="95%" id="canvas.CM340A_AdcDiagc/AdcDiagc/AdcDiagcInit1" original_viewBox="379.00 169.00 440.00 49.00" preserveAspectRatio="xMinYMin meet" viewBox="379.00 169.00 440.00 49.00" width="100%" x="0" y="0" zoomAndPan="disable">
  <defs/>
  <g fill="none" stroke="black" stroke-width="1" fill-rule="evenodd" stroke-linecap="square" stroke-linejoin="bevel">
    <g id="background" stroke="none" fill-opacity="1" fill="#ffffff">
      <g fill="#ffffff" fill-opacity="1" stroke="none" transform="matrix(1,0,0,1,0,0)" font-family="MS Shell Dlg 2" font-size="8.25" font-weight="400" font-style="normal">
        <path vector-effect="non-scaling-stroke" fill-rule="evenodd" d="M385,175 L813,175 L813,212 L385,212 L385,175z "/>
      </g>
    </g>
    <g id="prop.CM340A_AdcDiagc/AdcDiagc/AdcDiagcInit1" class="proptable" display="none" pointer-events="none" extent_Height="114" extent_Width="213.75" preferred_X="5" preferred_Y="5">
      <rect x="0" y="0" width="213.75" height="114" rx="4" ry="4" stroke="none" fill="rgb(100%,100%,100%)"/>
      <text x="3" y="12" fill="rgb(0%,0%,0%)" stroke="none" font-family="Helvetica" font-size="9">ShowPortLabels</text>
      <text x="151.5" y="12" fill="rgb(0%,0%,0%)" stroke="none" font-family="Helvetica" font-size="9">FromPortIcon</text>
      <rect x="0" y="15" width="213.75" height="14" stroke="none" fill="rgb(90.2%,90.2%,90.2%)"/>
      <text x="3" y="26" fill="rgb(0%,0%,0%)" stroke="none" font-family="Helvetica" font-size="9">Permissions</text>
      <text x="151.5" y="26" fill="rgb(0%,0%,0%)" stroke="none" font-family="Helvetica" font-size="9">ReadWrite</text>
      <text x="3" y="40" fill="rgb(0%,0%,0%)" stroke="none" font-family="Helvetica" font-size="9">ErrorFcn</text>
      <text x="151.5" y="40" fill="rgb(0%,0%,0%)" stroke="none" font-family="Helvetica" font-size="9"/>
      <rect x="0" y="43" width="213.75" height="14" stroke="none" fill="rgb(90.2%,90.2%,90.2%)"/>
      <text x="3" y="54" fill="rgb(0%,0%,0%)" stroke="none" font-family="Helvetica" font-size="9">PermitHierarchicalResolution</text>
      <text x="151.5" y="54" fill="rgb(0%,0%,0%)" stroke="none" font-family="Helvetica" font-size="9">All</text>
      <text x="3" y="68" fill="rgb(0%,0%,0%)" stroke="none" font-family="Helvetica" font-size="9">TreatAsAtomicUnit</text>
      <text x="151.5" y="68" fill="rgb(0%,0%,0%)" stroke="none" font-family="Helvetica" font-size="9">off</text>
      <rect x="0" y="71" width="213.75" height="14" stroke="none" fill="rgb(90.2%,90.2%,90.2%)"/>
      <text x="3" y="82" fill="rgb(0%,0%,0%)" stroke="none" font-family="Helvetica" font-size="9">PropExecContextOutsideSubsystem</text>
      <text x="151.5" y="82" fill="rgb(0%,0%,0%)" stroke="none" font-family="Helvetica" font-size="9">off</text>
      <text x="3" y="96" fill="rgb(0%,0%,0%)" stroke="none" font-family="Helvetica" font-size="9">CheckFcnCallInpInsideContextMsg</text>
      <text x="151.5" y="96" fill="rgb(0%,0%,0%)" stroke="none" font-family="Helvetica" font-size="9">off</text>
      <rect x="0" y="99" width="213.75" height="14" stroke="none" fill="rgb(90.2%,90.2%,90.2%)"/>
      <text x="3" y="110" fill="rgb(0%,0%,0%)" stroke="none" font-family="Helvetica" font-size="9">RTWSystemCode</text>
      <text x="151.5" y="110" fill="rgb(0%,0%,0%)" stroke="none" font-family="Helvetica" font-size="9">Auto</text>
      <rect x="0" y="0" width="213.75" height="114" rx="4" ry="4" stroke="rgb(0%,0%,0%)" fill="none"/>
    </g>
    <g id="CM340A_AdcDiagc/AdcDiagc/AdcDiagcInit1" linkid="CM340A_AdcDiagc/AdcDiagc/AdcDiagcInit1" onmouseover="showPropAndHighlight(evt)" onmouseout="hidePropAndUnhighlight(evt)" onclick="changeSys(evt)" highlight="fill">
      <title id="title.CM340A_AdcDiagc/AdcDiagc/AdcDiagcInit1">AdcDiagcInit1</title>
      <g id="prop.CM340A_AdcDiagc/AdcDiagc/AdcDiagcInit1/function" class="proptable" display="none" pointer-events="none" extent_Height="198" extent_Width="183.5" preferred_X="810" preferred_Y="180">
        <rect x="0" y="0" width="183.5" height="198" rx="4" ry="4" stroke="none" fill="rgb(100%,100%,100%)"/>
        <text x="3" y="12" fill="rgb(0%,0%,0%)" stroke="none" font-family="Helvetica" font-size="9">TriggerType</text>
        <text x="110" y="12" fill="rgb(0%,0%,0%)" stroke="none" font-family="Helvetica" font-size="9">function-call</text>
        <rect x="0" y="15" width="183.5" height="14" stroke="none" fill="rgb(90.2%,90.2%,90.2%)"/>
        <text x="3" y="26" fill="rgb(0%,0%,0%)" stroke="none" font-family="Helvetica" font-size="9">StatesWhenEnabling</text>
        <text x="110" y="26" fill="rgb(0%,0%,0%)" stroke="none" font-family="Helvetica" font-size="9">held</text>
        <text x="3" y="40" fill="rgb(0%,0%,0%)" stroke="none" font-family="Helvetica" font-size="9">PropagateVarSize</text>
        <text x="110" y="40" fill="rgb(0%,0%,0%)" stroke="none" font-family="Helvetica" font-size="9">During execution</text>
        <rect x="0" y="43" width="183.5" height="14" stroke="none" fill="rgb(90.2%,90.2%,90.2%)"/>
        <text x="3" y="54" fill="rgb(0%,0%,0%)" stroke="none" font-family="Helvetica" font-size="9">ShowOutputPort</text>
        <text x="110" y="54" fill="rgb(0%,0%,0%)" stroke="none" font-family="Helvetica" font-size="9">off</text>
        <text x="3" y="68" fill="rgb(0%,0%,0%)" stroke="none" font-family="Helvetica" font-size="9">OutputDataType</text>
        <text x="110" y="68" fill="rgb(0%,0%,0%)" stroke="none" font-family="Helvetica" font-size="9">auto</text>
        <rect x="0" y="71" width="183.5" height="14" stroke="none" fill="rgb(90.2%,90.2%,90.2%)"/>
        <text x="3" y="82" fill="rgb(0%,0%,0%)" stroke="none" font-family="Helvetica" font-size="9">SampleTimeType</text>
        <text x="110" y="82" fill="rgb(0%,0%,0%)" stroke="none" font-family="Helvetica" font-size="9">triggered</text>
        <text x="3" y="96" fill="rgb(0%,0%,0%)" stroke="none" font-family="Helvetica" font-size="9">SampleTime</text>
        <text x="110" y="96" fill="rgb(0%,0%,0%)" stroke="none" font-family="Helvetica" font-size="9">1</text>
        <rect x="0" y="99" width="183.5" height="14" stroke="none" fill="rgb(90.2%,90.2%,90.2%)"/>
        <text x="3" y="110" fill="rgb(0%,0%,0%)" stroke="none" font-family="Helvetica" font-size="9">ZeroCross</text>
        <text x="110" y="110" fill="rgb(0%,0%,0%)" stroke="none" font-family="Helvetica" font-size="9">on</text>
        <text x="3" y="124" fill="rgb(0%,0%,0%)" stroke="none" font-family="Helvetica" font-size="9">PortDimensions</text>
        <text x="110" y="124" fill="rgb(0%,0%,0%)" stroke="none" font-family="Helvetica" font-size="9">-1</text>
        <rect x="0" y="127" width="183.5" height="14" stroke="none" fill="rgb(90.2%,90.2%,90.2%)"/>
        <text x="3" y="138" fill="rgb(0%,0%,0%)" stroke="none" font-family="Helvetica" font-size="9">TriggerSignalSampleTime</text>
        <text x="110" y="138" fill="rgb(0%,0%,0%)" stroke="none" font-family="Helvetica" font-size="9">-1</text>
        <text x="3" y="152" fill="rgb(0%,0%,0%)" stroke="none" font-family="Helvetica" font-size="9">OutMin</text>
        <text x="110" y="152" fill="rgb(0%,0%,0%)" stroke="none" font-family="Helvetica" font-size="9">[]</text>
        <rect x="0" y="155" width="183.5" height="14" stroke="none" fill="rgb(90.2%,90.2%,90.2%)"/>
        <text x="3" y="166" fill="rgb(0%,0%,0%)" stroke="none" font-family="Helvetica" font-size="9">OutMax</text>
        <text x="110" y="166" fill="rgb(0%,0%,0%)" stroke="none" font-family="Helvetica" font-size="9">[]</text>
        <text x="3" y="180" fill="rgb(0%,0%,0%)" stroke="none" font-family="Helvetica" font-size="9">OutDataTypeStr</text>
        <text x="110" y="180" fill="rgb(0%,0%,0%)" stroke="none" font-family="Helvetica" font-size="9">Inherit: auto</text>
        <rect x="0" y="183" width="183.5" height="14" stroke="none" fill="rgb(90.2%,90.2%,90.2%)"/>
        <text x="3" y="194" fill="rgb(0%,0%,0%)" stroke="none" font-family="Helvetica" font-size="9">Interpolate</text>
        <text x="110" y="194" fill="rgb(0%,0%,0%)" stroke="none" font-family="Helvetica" font-size="9">on</text>
        <rect x="0" y="0" width="183.5" height="198" rx="4" ry="4" stroke="rgb(0%,0%,0%)" fill="none"/>
      </g>
      <g id="CM340A_AdcDiagc/AdcDiagc/AdcDiagcInit1/function" linkid="" onmouseover="showPropAndHighlight(evt)" onmouseout="hidePropAndUnhighlight(evt)" onclick="changeSys(evt)" highlight="fill">
        <title id="title.CM340A_AdcDiagc/AdcDiagc/AdcDiagcInit1/function">function</title>
        <g fill="#ffffff" fill-opacity="1" stroke="none" transform="matrix(1,0,0,1,785,175)" font-family="MS Shell Dlg 2" font-size="8.25" font-weight="400" font-style="normal">
          <path vector-effect="none" fill-rule="evenodd" d="M0,0 L20,0 L20,20 L0,20 L0,0z "/>
        </g>
        <g fill="#ffffff" fill-opacity="1" stroke="none" transform="matrix(1,0,0,1,785,175)" font-family="MS Shell Dlg 2" font-size="8.25" font-weight="400" font-style="normal" clip-path="url(#clip828)">
          <defs>
            <clipPath id="clip828">
              <path vector-effect="none" fill-rule="evenodd" d="M0,0 L20,0 L20,20 L0,20 L0,0z "/>
            </clipPath>
          </defs>
        </g>
        <g fill="#ffffff" fill-opacity="1" stroke="#000000" stroke-opacity="1" stroke-width="1" stroke-linecap="square" stroke-linejoin="bevel" transform="matrix(1,0,0,1,795,185)" font-family="Helvetica" font-size="7.5" font-weight="400" font-style="normal" clip-path="url(#clip829)">
          <defs>
            <clipPath id="clip829">
              <path vector-effect="none" fill-rule="evenodd" d="M-10,-10 L10,-10 L10,10 L-10,10 L-10,-10z "/>
            </clipPath>
          </defs>
        </g>
        <g fill="#ffffff" fill-opacity="1" stroke="#000000" stroke-opacity="1" stroke-width="1" stroke-linecap="square" stroke-linejoin="bevel" transform="matrix(1.33333,0,0,1.33333,795,185)" font-family="Helvetica" font-size="7.5" font-weight="400" font-style="normal" clip-path="url(#clip830)">
          <defs>
            <clipPath id="clip830">
              <path vector-effect="none" fill-rule="evenodd" d="M-7.5,-7.5 L7.5,-7.5 L7.5,7.5 L-7.5,7.5 L-7.5,-7.5z "/>
            </clipPath>
          </defs>
          <text textLength="8" fill="#000000" fill-opacity="1" stroke="none" xml:space="preserve" x="-3" y="2.25" font-family="Helvetica" font-size="7.5" font-weight="400" font-style="normal">f()</text>
        </g>
        <g fill="#ffffff" fill-opacity="1" stroke="#000000" stroke-opacity="1" stroke-width="1" stroke-linecap="square" stroke-linejoin="bevel" transform="matrix(1,0,0,1,795,185)" font-family="Helvetica" font-size="7.5" font-weight="400" font-style="normal" clip-path="url(#clip831)">
          <defs>
            <clipPath id="clip831">
              <path vector-effect="none" fill-rule="evenodd" d="M-10,-10 L10,-10 L10,10 L-10,10 L-10,-10z "/>
            </clipPath>
          </defs>
        </g>
        <g fill="none" stroke="#000000" stroke-opacity="1" stroke-width="1" stroke-linecap="butt" stroke-linejoin="miter" stroke-miterlimit="2" transform="matrix(1,0,0,1,785,175)" font-family="MS Shell Dlg 2" font-size="8.25" font-weight="400" font-style="normal">
          <path vector-effect="none" fill-rule="evenodd" d="M0,0 L20,0 L20,20 L0,20 L0,0z "/>
        </g>
        <g fill="none" stroke="none" transform="matrix(1,0,0,1,795,197)" font-family="MS Shell Dlg 2" font-size="8.25" font-weight="400" font-style="normal">
          <path vector-effect="none" fill-rule="evenodd" d="M-18,0 L18,0 L18,15 L-18,15 L-18,0z "/>
        </g>
        <g fill="none" stroke="#000000" stroke-opacity="1" stroke-width="1" stroke-linecap="square" stroke-linejoin="bevel" transform="matrix(0.25,0,0,0.25,777,197)" font-family="Helvetica" font-size="40" font-weight="400" font-style="normal" clip-path="url(#clip832)">
          <defs>
            <clipPath id="clip832">
              <path vector-effect="non-scaling-stroke" fill-rule="evenodd" d="M-1576,-96 L144,-96 L144,60 L-1576,60 L-1576,-96z "/>
            </clipPath>
          </defs>
          <text textLength="136" fill="#000000" fill-opacity="1" stroke="none" xml:space="preserve" x="4" y="41" font-family="Helvetica" font-size="40" font-weight="400" font-style="normal">function</text>
        </g>
      </g>
      <g id="prop.CM340A_AdcDiagc/AdcDiagc/AdcDiagcInit1/CopyRight2" class="proptable" display="none" pointer-events="none" extent_Height="16" extent_Width="45.25" preferred_X="700" preferred_Y="180">
        <rect x="0" y="0" width="45.25" height="16" rx="4" ry="4" stroke="none" fill="rgb(100%,100%,100%)"/>
        <text x="3" y="12" fill="rgb(0%,0%,0%)" stroke="none" font-family="Helvetica" font-size="9">none</text>
        <text x="27.5" y="12" fill="rgb(0%,0%,0%)" stroke="none" font-family="Helvetica" font-size="9">on</text>
        <rect x="0" y="0" width="45.25" height="16" rx="4" ry="4" stroke="rgb(0%,0%,0%)" fill="none"/>
      </g>
      <g id="CM340A_AdcDiagc/AdcDiagc/AdcDiagcInit1/CopyRight2" linkid="CM340A_AdcDiagc/AdcDiagc/AdcDiagcInit1/CopyRight2" onmouseover="showPropAndHighlight(evt)" onmouseout="hidePropAndUnhighlight(evt)" onclick="changeSys(evt)" highlight="fill">
        <title id="title.CM340A_AdcDiagc/AdcDiagc/AdcDiagcInit1/CopyRight2">CopyRight2</title>
        <g fill="#000000" fill-opacity="0.8" stroke="none" transform="matrix(1,0,0,1,385,175)" font-family="MS Shell Dlg 2" font-size="8.25" font-weight="400" font-style="normal">
          <path vector-effect="non-scaling-stroke" fill-rule="evenodd" d="M310,4 L314,4 L314,26 L4,26 L4,22 L310,22 L310,4z "/>
        </g>
        <g fill="#ffffff" fill-opacity="1" stroke="none" transform="matrix(1,0,0,1,385,175)" font-family="MS Shell Dlg 2" font-size="8.25" font-weight="400" font-style="normal">
          <path vector-effect="none" fill-rule="evenodd" d="M0,0 L310,0 L310,22 L0,22 L0,0z "/>
        </g>
        <g fill="#ffffff" fill-opacity="1" stroke="none" transform="matrix(1,0,0,1,385,175)" font-family="MS Shell Dlg 2" font-size="8.25" font-weight="400" font-style="normal" clip-path="url(#clip833)">
          <defs>
            <clipPath id="clip833">
              <path vector-effect="none" fill-rule="evenodd" d="M0,0 L310,0 L310,22 L0,22 L0,0z "/>
            </clipPath>
          </defs>
        </g>
        <g fill="#ffffff" fill-opacity="1" stroke="none" transform="matrix(1,0,0,1,0,0)" font-family="MS Shell Dlg 2" font-size="8.25" font-weight="400" font-style="normal" clip-path="url(#clip834)">
          <defs>
            <clipPath id="clip834">
              <path vector-effect="non-scaling-stroke" fill-rule="evenodd" d="M385,175 L695,175 L695,197 L385,197 L385,175z "/>
            </clipPath>
          </defs>
          <path vector-effect="non-scaling-stroke" fill-rule="evenodd" d="M385,175 L695,175 L695,197 L385,197 L385,175z "/>
        </g>
        <g fill="#ffffff" fill-opacity="1" stroke="#000000" stroke-opacity="1" stroke-width="1" stroke-linecap="square" stroke-linejoin="bevel" transform="matrix(1,0,0,1,540,186)" font-family="Arial" font-size="10.5" font-weight="400" font-style="normal" clip-path="url(#clip835)">
          <defs>
            <clipPath id="clip835">
              <path vector-effect="none" fill-rule="evenodd" d="M-155,-11 L155,-11 L155,11 L-155,11 L-155,-11z "/>
            </clipPath>
          </defs>
        </g>
        <g fill="#ffffff" fill-opacity="1" stroke="#000000" stroke-opacity="1" stroke-width="1" stroke-linecap="square" stroke-linejoin="bevel" transform="matrix(1.33333,0,0,1.33333,540,186)" font-family="Arial" font-size="10.5" font-weight="400" font-style="normal" clip-path="url(#clip836)">
          <defs>
            <clipPath id="clip836">
              <path vector-effect="none" fill-rule="evenodd" d="M-116.25,-8.25 L116.25,-8.25 L116.25,8.25 L-116.25,8.25 L-116.25,-8.25z "/>
            </clipPath>
          </defs>
          <text textLength="215" fill="#000000" fill-opacity="1" stroke="none" xml:space="preserve" x="-105" y="3.75" font-family="Arial" font-size="10.5" font-weight="400" font-style="normal">Nxtr Confidential -- ©2013- 2016 Nxtr</text>
        </g>
        <g fill="#ffffff" fill-opacity="1" stroke="#000000" stroke-opacity="1" stroke-width="1" stroke-linecap="square" stroke-linejoin="bevel" transform="matrix(1,0,0,1,540,186)" font-family="Arial" font-size="10.5" font-weight="400" font-style="normal" clip-path="url(#clip837)">
          <defs>
            <clipPath id="clip837">
              <path vector-effect="none" fill-rule="evenodd" d="M-155,-11 L155,-11 L155,11 L-155,11 L-155,-11z "/>
            </clipPath>
          </defs>
        </g>
        <g fill="none" stroke="#000000" stroke-opacity="1" stroke-width="1" stroke-linecap="butt" stroke-linejoin="miter" stroke-miterlimit="2" transform="matrix(1,0,0,1,385,175)" font-family="MS Shell Dlg 2" font-size="8.25" font-weight="400" font-style="normal">
          <path vector-effect="none" fill-rule="evenodd" d="M0,0 L310,0 L310,22 L0,22 L0,0z "/>
        </g>
      </g>
    </g>
  </g>
</svg>
