<?xml version="1.0" encoding="UTF-8" standalone="no"?>
<svg xmlns="http://www.w3.org/2000/svg" xmlns:xlink="http://www.w3.org/1999/xlink" version="1.2" baseProfile="tiny" class="canvas" display="inline" height="95%" id="canvas.ES241A_MotAg2Meas/MotAg2Meas/MotAg2MeasPer1/AnalogMsbDiagnostics/TestFail/SinCosMaxError" original_viewBox="164.00 9.00 562.00 246.00" preserveAspectRatio="xMinYMin meet" viewBox="164.00 9.00 562.00 246.00" width="100%" x="0" y="0" zoomAndPan="disable">
  <defs/>
  <g fill="none" stroke="black" stroke-width="1" fill-rule="evenodd" stroke-linecap="square" stroke-linejoin="bevel">
    <g id="background" stroke="none" fill-opacity="1" fill="#ffffff">
      <g fill="#ffffff" fill-opacity="1" stroke="none" transform="matrix(1,0,0,1,0,0)" font-family="MS Shell Dlg 2" font-size="8.25" font-weight="400" font-style="normal">
        <path vector-effect="non-scaling-stroke" fill-rule="evenodd" d="M170,15 L720,15 L720,249 L170,249 L170,15z "/>
      </g>
    </g>
    <g id="prop.ES241A_MotAg2Meas/MotAg2Meas/MotAg2MeasPer1/AnalogMsbDiagnostics/TestFail/SinCosMaxError" class="proptable" display="none" pointer-events="none" extent_Height="100" extent_Width="213.75" preferred_X="5" preferred_Y="5">
      <rect x="0" y="0" width="213.75" height="100" rx="4" ry="4" stroke="none" fill="rgb(100%,100%,100%)"/>
      <text x="3" y="12" fill="rgb(0%,0%,0%)" stroke="none" font-family="Helvetica" font-size="9">ShowPortLabels</text>
      <text x="151.5" y="12" fill="rgb(0%,0%,0%)" stroke="none" font-family="Helvetica" font-size="9">FromPortIcon</text>
      <rect x="0" y="15" width="213.75" height="14" stroke="none" fill="rgb(90.2%,90.2%,90.2%)"/>
      <text x="3" y="26" fill="rgb(0%,0%,0%)" stroke="none" font-family="Helvetica" font-size="9">Permissions</text>
      <text x="151.5" y="26" fill="rgb(0%,0%,0%)" stroke="none" font-family="Helvetica" font-size="9">ReadWrite</text>
      <text x="3" y="40" fill="rgb(0%,0%,0%)" stroke="none" font-family="Helvetica" font-size="9">ErrorFcn</text>
      <text x="151.5" y="40" fill="rgb(0%,0%,0%)" stroke="none" font-family="Helvetica" font-size="9"/>
      <rect x="0" y="43" width="213.75" height="14" stroke="none" fill="rgb(90.2%,90.2%,90.2%)"/>
      <text x="3" y="54" fill="rgb(0%,0%,0%)" stroke="none" font-family="Helvetica" font-size="9">PermitHierarchicalResolution</text>
      <text x="151.5" y="54" fill="rgb(0%,0%,0%)" stroke="none" font-family="Helvetica" font-size="9">All</text>
      <text x="3" y="68" fill="rgb(0%,0%,0%)" stroke="none" font-family="Helvetica" font-size="9">TreatAsAtomicUnit</text>
      <text x="151.5" y="68" fill="rgb(0%,0%,0%)" stroke="none" font-family="Helvetica" font-size="9">on</text>
      <rect x="0" y="71" width="213.75" height="14" stroke="none" fill="rgb(90.2%,90.2%,90.2%)"/>
      <text x="3" y="82" fill="rgb(0%,0%,0%)" stroke="none" font-family="Helvetica" font-size="9">PropExecContextOutsideSubsystem</text>
      <text x="151.5" y="82" fill="rgb(0%,0%,0%)" stroke="none" font-family="Helvetica" font-size="9">off</text>
      <text x="3" y="96" fill="rgb(0%,0%,0%)" stroke="none" font-family="Helvetica" font-size="9">RTWSystemCode</text>
      <text x="151.5" y="96" fill="rgb(0%,0%,0%)" stroke="none" font-family="Helvetica" font-size="9">Auto</text>
      <rect x="0" y="0" width="213.75" height="100" rx="4" ry="4" stroke="rgb(0%,0%,0%)" fill="none"/>
    </g>
    <g id="ES241A_MotAg2Meas/MotAg2Meas/MotAg2MeasPer1/AnalogMsbDiagnostics/TestFail/SinCosMaxError" linkid="ES241A_MotAg2Meas/MotAg2Meas/MotAg2MeasPer1/AnalogMsbDiagnostics/TestFail/SinCosMaxError" onmouseover="showPropAndHighlight(evt)" onmouseout="hidePropAndUnhighlight(evt)" onclick="changeSys(evt)" highlight="fill">
      <title id="title.ES241A_MotAg2Meas/MotAg2Meas/MotAg2MeasPer1/AnalogMsbDiagnostics/TestFail/SinCosMaxError">SinCosMaxError</title>
      <g id="prop.ES241A_MotAg2Meas/MotAg2Meas/MotAg2MeasPer1/AnalogMsbDiagnostics/TestFail/SinCosMaxError/Bit1set" class="proptable" display="none" pointer-events="none" extent_Height="198" extent_Width="171" preferred_X="515" preferred_Y="223">
        <rect x="0" y="0" width="171" height="198" rx="4" ry="4" stroke="none" fill="rgb(100%,100%,100%)"/>
        <text x="3" y="12" fill="rgb(0%,0%,0%)" stroke="none" font-family="Helvetica" font-size="9">Port</text>
        <text x="113.75" y="12" fill="rgb(0%,0%,0%)" stroke="none" font-family="Helvetica" font-size="9">1</text>
        <rect x="0" y="15" width="171" height="14" stroke="none" fill="rgb(90.2%,90.2%,90.2%)"/>
        <text x="3" y="26" fill="rgb(0%,0%,0%)" stroke="none" font-family="Helvetica" font-size="9">IconDisplay</text>
        <text x="113.75" y="26" fill="rgb(0%,0%,0%)" stroke="none" font-family="Helvetica" font-size="9">Port number</text>
        <text x="3" y="40" fill="rgb(0%,0%,0%)" stroke="none" font-family="Helvetica" font-size="9">OutMin</text>
        <text x="113.75" y="40" fill="rgb(0%,0%,0%)" stroke="none" font-family="Helvetica" font-size="9">[]</text>
        <rect x="0" y="43" width="171" height="14" stroke="none" fill="rgb(90.2%,90.2%,90.2%)"/>
        <text x="3" y="54" fill="rgb(0%,0%,0%)" stroke="none" font-family="Helvetica" font-size="9">OutMax</text>
        <text x="113.75" y="54" fill="rgb(0%,0%,0%)" stroke="none" font-family="Helvetica" font-size="9">[]</text>
        <text x="3" y="68" fill="rgb(0%,0%,0%)" stroke="none" font-family="Helvetica" font-size="9">OutDataTypeStr</text>
        <text x="113.75" y="68" fill="rgb(0%,0%,0%)" stroke="none" font-family="Helvetica" font-size="9">Inherit: auto</text>
        <rect x="0" y="71" width="171" height="14" stroke="none" fill="rgb(90.2%,90.2%,90.2%)"/>
        <text x="3" y="82" fill="rgb(0%,0%,0%)" stroke="none" font-family="Helvetica" font-size="9">LockScale</text>
        <text x="113.75" y="82" fill="rgb(0%,0%,0%)" stroke="none" font-family="Helvetica" font-size="9">off</text>
        <text x="3" y="96" fill="rgb(0%,0%,0%)" stroke="none" font-family="Helvetica" font-size="9">PortDimensions</text>
        <text x="113.75" y="96" fill="rgb(0%,0%,0%)" stroke="none" font-family="Helvetica" font-size="9">-1</text>
        <rect x="0" y="99" width="171" height="14" stroke="none" fill="rgb(90.2%,90.2%,90.2%)"/>
        <text x="3" y="110" fill="rgb(0%,0%,0%)" stroke="none" font-family="Helvetica" font-size="9">VarSizeSig</text>
        <text x="113.75" y="110" fill="rgb(0%,0%,0%)" stroke="none" font-family="Helvetica" font-size="9">Inherit</text>
        <text x="3" y="124" fill="rgb(0%,0%,0%)" stroke="none" font-family="Helvetica" font-size="9">SampleTime</text>
        <text x="113.75" y="124" fill="rgb(0%,0%,0%)" stroke="none" font-family="Helvetica" font-size="9">-1</text>
        <rect x="0" y="127" width="171" height="14" stroke="none" fill="rgb(90.2%,90.2%,90.2%)"/>
        <text x="3" y="138" fill="rgb(0%,0%,0%)" stroke="none" font-family="Helvetica" font-size="9">SignalType</text>
        <text x="113.75" y="138" fill="rgb(0%,0%,0%)" stroke="none" font-family="Helvetica" font-size="9">auto</text>
        <text x="3" y="152" fill="rgb(0%,0%,0%)" stroke="none" font-family="Helvetica" font-size="9">SamplingMode</text>
        <text x="113.75" y="152" fill="rgb(0%,0%,0%)" stroke="none" font-family="Helvetica" font-size="9">auto</text>
        <rect x="0" y="155" width="171" height="14" stroke="none" fill="rgb(90.2%,90.2%,90.2%)"/>
        <text x="3" y="166" fill="rgb(0%,0%,0%)" stroke="none" font-family="Helvetica" font-size="9">SourceOfInitialOutputValue</text>
        <text x="113.75" y="166" fill="rgb(0%,0%,0%)" stroke="none" font-family="Helvetica" font-size="9">Dialog</text>
        <text x="3" y="180" fill="rgb(0%,0%,0%)" stroke="none" font-family="Helvetica" font-size="9">OutputWhenDisabled</text>
        <text x="113.75" y="180" fill="rgb(0%,0%,0%)" stroke="none" font-family="Helvetica" font-size="9">held</text>
        <rect x="0" y="183" width="171" height="14" stroke="none" fill="rgb(90.2%,90.2%,90.2%)"/>
        <text x="3" y="194" fill="rgb(0%,0%,0%)" stroke="none" font-family="Helvetica" font-size="9">InitialOutput</text>
        <text x="113.75" y="194" fill="rgb(0%,0%,0%)" stroke="none" font-family="Helvetica" font-size="9">[]</text>
        <rect x="0" y="0" width="171" height="198" rx="4" ry="4" stroke="rgb(0%,0%,0%)" fill="none"/>
      </g>
      <g id="ES241A_MotAg2Meas/MotAg2Meas/MotAg2MeasPer1/AnalogMsbDiagnostics/TestFail/SinCosMaxError/Bit1set" linkid="" onmouseover="showPropAndHighlight(evt)" onmouseout="hidePropAndUnhighlight(evt)" onclick="changeSys(evt)" highlight="fill">
        <title id="title.ES241A_MotAg2Meas/MotAg2Meas/MotAg2MeasPer1/AnalogMsbDiagnostics/TestFail/SinCosMaxError/Bit1set">Bit1set</title>
        <g fill="#ffffff" fill-opacity="1" stroke="none" transform="matrix(1,0,0,1,480,218)" font-family="MS Shell Dlg 2" font-size="8.25" font-weight="400" font-style="normal">
          <path vector-effect="none" fill-rule="nonzero" d="M7,0 L23,0 C26.866,0 30,3.13401 30,7 C30,10.866 26.866,14 23,14 L7,14 C3.13401,14 0,10.866 0,7 C0,3.13401 3.13401,0 7,0 z "/>
        </g>
        <g fill="#ffffff" fill-opacity="1" stroke="none" transform="matrix(1,0,0,1,480,218)" font-family="MS Shell Dlg 2" font-size="8.25" font-weight="400" font-style="normal" clip-path="url(#clip1834)">
          <defs>
            <clipPath id="clip1834">
              <path vector-effect="none" fill-rule="evenodd" d="M0,0 L30,0 L30,14 L0,14 L0,0z "/>
            </clipPath>
          </defs>
        </g>
        <g fill="#ffffff" fill-opacity="1" stroke="#000000" stroke-opacity="1" stroke-width="1" stroke-linecap="square" stroke-linejoin="bevel" transform="matrix(1,0,0,1,495,225)" font-family="Helvetica" font-size="7.5" font-weight="400" font-style="normal" clip-path="url(#clip1835)">
          <defs>
            <clipPath id="clip1835">
              <path vector-effect="none" fill-rule="evenodd" d="M-15,-7 L15,-7 L15,7 L-15,7 L-15,-7z "/>
            </clipPath>
          </defs>
        </g>
        <g fill="#ffffff" fill-opacity="1" stroke="#000000" stroke-opacity="1" stroke-width="1" stroke-linecap="square" stroke-linejoin="bevel" transform="matrix(1.33333,0,0,1.33333,495,225)" font-family="Helvetica" font-size="7.5" font-weight="400" font-style="normal" clip-path="url(#clip1836)">
          <defs>
            <clipPath id="clip1836">
              <path vector-effect="none" fill-rule="evenodd" d="M-11.25,-5.25 L11.25,-5.25 L11.25,5.25 L-11.25,5.25 L-11.25,-5.25z "/>
            </clipPath>
          </defs>
          <text textLength="4" fill="#000000" fill-opacity="1" stroke="none" xml:space="preserve" x="-2.25" y="2.25" font-family="Helvetica" font-size="7.5" font-weight="400" font-style="normal">1</text>
        </g>
        <g fill="#ffffff" fill-opacity="1" stroke="#000000" stroke-opacity="1" stroke-width="1" stroke-linecap="square" stroke-linejoin="bevel" transform="matrix(1,0,0,1,495,225)" font-family="Helvetica" font-size="7.5" font-weight="400" font-style="normal" clip-path="url(#clip1837)">
          <defs>
            <clipPath id="clip1837">
              <path vector-effect="none" fill-rule="evenodd" d="M-15,-7 L15,-7 L15,7 L-15,7 L-15,-7z "/>
            </clipPath>
          </defs>
        </g>
        <g fill="none" stroke="#000000" stroke-opacity="1" stroke-width="1" stroke-linecap="butt" stroke-linejoin="miter" stroke-miterlimit="2" transform="matrix(1,0,0,1,480,218)" font-family="MS Shell Dlg 2" font-size="8.25" font-weight="400" font-style="normal">
          <path vector-effect="none" fill-rule="nonzero" d="M7,0 L23,0 C26.866,0 30,3.13401 30,7 C30,10.866 26.866,14 23,14 L7,14 C3.13401,14 0,10.866 0,7 C0,3.13401 3.13401,0 7,0 z "/>
        </g>
        <g fill="none" stroke="none" transform="matrix(1,0,0,1,495,234)" font-family="MS Shell Dlg 2" font-size="8.25" font-weight="400" font-style="normal">
          <path vector-effect="none" fill-rule="evenodd" d="M-16,0 L16,0 L16,15 L-16,15 L-16,0z "/>
        </g>
        <g fill="none" stroke="#000000" stroke-opacity="1" stroke-width="1" stroke-linecap="square" stroke-linejoin="bevel" transform="matrix(0.25,0,0,0.25,479,234)" font-family="Helvetica" font-size="40" font-weight="400" font-style="normal" clip-path="url(#clip1838)">
          <defs>
            <clipPath id="clip1838">
              <path vector-effect="non-scaling-stroke" fill-rule="evenodd" d="M-1244,-884 L980,-884 L980,60 L-1244,60 L-1244,-884z "/>
            </clipPath>
          </defs>
          <text textLength="120" fill="#000000" fill-opacity="1" stroke="none" xml:space="preserve" x="4" y="41" font-family="Helvetica" font-size="40" font-weight="400" font-style="normal">Bit1set</text>
        </g>
      </g>
      <g id="prop.ES241A_MotAg2Meas/MotAg2Meas/MotAg2MeasPer1/AnalogMsbDiagnostics/TestFail/SinCosMaxError/Action Port" class="proptable" display="none" pointer-events="none" extent_Height="30" extent_Width="214.75" preferred_X="234" preferred_Y="20">
        <rect x="0" y="0" width="214.75" height="30" rx="4" ry="4" stroke="none" fill="rgb(100%,100%,100%)"/>
        <text x="3" y="12" fill="rgb(0%,0%,0%)" stroke="none" font-family="Helvetica" font-size="9">InitializeStates</text>
        <text x="79.75" y="12" fill="rgb(0%,0%,0%)" stroke="none" font-family="Helvetica" font-size="9">held</text>
        <rect x="0" y="15" width="214.75" height="14" stroke="none" fill="rgb(90.2%,90.2%,90.2%)"/>
        <text x="3" y="26" fill="rgb(0%,0%,0%)" stroke="none" font-family="Helvetica" font-size="9">PropagateVarSize</text>
        <text x="79.75" y="26" fill="rgb(0%,0%,0%)" stroke="none" font-family="Helvetica" font-size="9">Only when execution is resumed</text>
        <rect x="0" y="0" width="214.75" height="30" rx="4" ry="4" stroke="rgb(0%,0%,0%)" fill="none"/>
      </g>
      <g id="ES241A_MotAg2Meas/MotAg2Meas/MotAg2MeasPer1/AnalogMsbDiagnostics/TestFail/SinCosMaxError/Action Port" linkid="" onmouseover="showPropAndHighlight(evt)" onmouseout="hidePropAndUnhighlight(evt)" onclick="changeSys(evt)" highlight="fill">
        <title id="title.ES241A_MotAg2Meas/MotAg2Meas/MotAg2MeasPer1/AnalogMsbDiagnostics/TestFail/SinCosMaxError/Action Port">Action Port</title>
        <g fill="#ffffff" fill-opacity="1" stroke="none" transform="matrix(1,0,0,1,170,15)" font-family="MS Shell Dlg 2" font-size="8.25" font-weight="400" font-style="normal">
          <path vector-effect="none" fill-rule="evenodd" d="M0,0 L59,0 L59,28 L0,28 L0,0z "/>
        </g>
        <g fill="#ffffff" fill-opacity="1" stroke="none" transform="matrix(1,0,0,1,170,15)" font-family="MS Shell Dlg 2" font-size="8.25" font-weight="400" font-style="normal" clip-path="url(#clip1839)">
          <defs>
            <clipPath id="clip1839">
              <path vector-effect="none" fill-rule="evenodd" d="M0,0 L59,0 L59,28 L0,28 L0,0z "/>
            </clipPath>
          </defs>
        </g>
        <g fill="#ffffff" fill-opacity="1" stroke="#000000" stroke-opacity="1" stroke-width="1" stroke-linecap="square" stroke-linejoin="bevel" transform="matrix(1,0,0,1,199,29)" font-family="Helvetica" font-size="7.5" font-weight="400" font-style="normal" clip-path="url(#clip1840)">
          <defs>
            <clipPath id="clip1840">
              <path vector-effect="none" fill-rule="evenodd" d="M-29,-14 L30,-14 L30,14 L-29,14 L-29,-14z "/>
            </clipPath>
          </defs>
        </g>
        <g fill="#ffffff" fill-opacity="1" stroke="#000000" stroke-opacity="1" stroke-width="1" stroke-linecap="square" stroke-linejoin="bevel" transform="matrix(1.33333,0,0,1.33333,199,29)" font-family="Helvetica" font-size="7.5" font-weight="400" font-style="normal" clip-path="url(#clip1841)">
          <defs>
            <clipPath id="clip1841">
              <path vector-effect="none" fill-rule="evenodd" d="M-21.75,-10.5 L22.5,-10.5 L22.5,10.5 L-21.75,10.5 L-21.75,-10.5z "/>
            </clipPath>
          </defs>
          <text textLength="28" fill="#000000" fill-opacity="1" stroke="none" xml:space="preserve" x="-13.5" y="2.25" font-family="Helvetica" font-size="7.5" font-weight="400" font-style="normal">elseif { }</text>
        </g>
        <g fill="#ffffff" fill-opacity="1" stroke="#000000" stroke-opacity="1" stroke-width="1" stroke-linecap="square" stroke-linejoin="bevel" transform="matrix(1,0,0,1,199,29)" font-family="Helvetica" font-size="7.5" font-weight="400" font-style="normal" clip-path="url(#clip1842)">
          <defs>
            <clipPath id="clip1842">
              <path vector-effect="none" fill-rule="evenodd" d="M-29,-14 L30,-14 L30,14 L-29,14 L-29,-14z "/>
            </clipPath>
          </defs>
        </g>
        <g fill="none" stroke="#000000" stroke-opacity="1" stroke-width="1" stroke-linecap="butt" stroke-linejoin="miter" stroke-miterlimit="2" transform="matrix(1,0,0,1,170,15)" font-family="MS Shell Dlg 2" font-size="8.25" font-weight="400" font-style="normal">
          <path vector-effect="none" fill-rule="evenodd" d="M0,0 L59,0 L59,28 L0,28 L0,0z "/>
        </g>
      </g>
      <g id="prop.ES241A_MotAg2Meas/MotAg2Meas/MotAg2MeasPer1/AnalogMsbDiagnostics/TestFail/SinCosMaxError/Bit Set" class="proptable" display="none" pointer-events="none" extent_Height="16" extent_Width="33" preferred_X="350" preferred_Y="210">
        <rect x="0" y="0" width="33" height="16" rx="4" ry="4" stroke="none" fill="rgb(100%,100%,100%)"/>
        <text x="3" y="12" fill="rgb(0%,0%,0%)" stroke="none" font-family="Helvetica" font-size="9">iBit</text>
        <text x="20" y="12" fill="rgb(0%,0%,0%)" stroke="none" font-family="Helvetica" font-size="9">1</text>
        <rect x="0" y="0" width="33" height="16" rx="4" ry="4" stroke="rgb(0%,0%,0%)" fill="none"/>
      </g>
      <g id="ES241A_MotAg2Meas/MotAg2Meas/MotAg2MeasPer1/AnalogMsbDiagnostics/TestFail/SinCosMaxError/Bit Set" linkid="ES241A_MotAg2Meas/MotAg2Meas/MotAg2MeasPer1/AnalogMsbDiagnostics/TestFail/SinCosMaxError/Bit Set" onmouseover="showPropAndHighlight(evt)" onmouseout="hidePropAndUnhighlight(evt)" onclick="changeSys(evt)" highlight="fill">
        <title id="title.ES241A_MotAg2Meas/MotAg2Meas/MotAg2MeasPer1/AnalogMsbDiagnostics/TestFail/SinCosMaxError/Bit Set">Bit Set</title>
        <g fill="#ffffff" fill-opacity="1" stroke="none" transform="matrix(1,0,0,1,305,205)" font-family="MS Shell Dlg 2" font-size="8.25" font-weight="400" font-style="normal">
          <path vector-effect="none" fill-rule="evenodd" d="M0,0 L40,0 L40,40 L0,40 L0,0z "/>
        </g>
        <g fill="#ffffff" fill-opacity="1" stroke="none" transform="matrix(1,0,0,1,305,205)" font-family="MS Shell Dlg 2" font-size="8.25" font-weight="400" font-style="normal" clip-path="url(#clip1843)">
          <defs>
            <clipPath id="clip1843">
              <path vector-effect="none" fill-rule="evenodd" d="M0,0 L40,0 L40,40 L0,40 L0,0z "/>
            </clipPath>
          </defs>
        </g>
        <g fill="#ffffff" fill-opacity="1" stroke="none" transform="matrix(1,0,0,1,0,0)" font-family="MS Shell Dlg 2" font-size="8.25" font-weight="400" font-style="normal" clip-path="url(#clip1844)">
          <defs>
            <clipPath id="clip1844">
              <path vector-effect="non-scaling-stroke" fill-rule="evenodd" d="M305,205 L345,205 L345,245 L305,245 L305,205z "/>
            </clipPath>
          </defs>
          <path vector-effect="non-scaling-stroke" fill-rule="evenodd" d="M305,205 L345,205 L345,245 L305,245 L305,205z "/>
        </g>
        <g fill="#ffffff" fill-opacity="1" stroke="#000000" stroke-opacity="1" stroke-width="1" stroke-linecap="square" stroke-linejoin="bevel" transform="matrix(1,0,0,1,325,219)" font-family="Helvetica" font-size="7.5" font-weight="400" font-style="normal" clip-path="url(#clip1845)">
          <defs>
            <clipPath id="clip1845">
              <path vector-effect="none" fill-rule="evenodd" d="M-20,-14 L20,-14 L20,26 L-20,26 L-20,-14z "/>
            </clipPath>
          </defs>
        </g>
        <g fill="#ffffff" fill-opacity="1" stroke="#000000" stroke-opacity="1" stroke-width="1" stroke-linecap="square" stroke-linejoin="bevel" transform="matrix(1.33333,0,0,1.33333,325,219)" font-family="Helvetica" font-size="7.5" font-weight="400" font-style="normal" clip-path="url(#clip1846)">
          <defs>
            <clipPath id="clip1846">
              <path vector-effect="none" fill-rule="evenodd" d="M-15,-10.5 L15,-10.5 L15,19.5 L-15,19.5 L-15,-10.5z "/>
            </clipPath>
          </defs>
          <text textLength="12" fill="#000000" fill-opacity="1" stroke="none" xml:space="preserve" x="-6" y="2.25" font-family="Helvetica" font-size="7.5" font-weight="400" font-style="normal">Set</text>
        </g>
        <g fill="#ffffff" fill-opacity="1" stroke="#000000" stroke-opacity="1" stroke-width="1" stroke-linecap="square" stroke-linejoin="bevel" transform="matrix(1,0,0,1,325,219)" font-family="Helvetica" font-size="7.5" font-weight="400" font-style="normal" clip-path="url(#clip1847)">
          <defs>
            <clipPath id="clip1847">
              <path vector-effect="none" fill-rule="evenodd" d="M-20,-14 L20,-14 L20,26 L-20,26 L-20,-14z "/>
            </clipPath>
          </defs>
        </g>
        <g fill="#ffffff" fill-opacity="1" stroke="#000000" stroke-opacity="1" stroke-width="1" stroke-linecap="square" stroke-linejoin="bevel" transform="matrix(1,0,0,1,325,231)" font-family="Helvetica" font-size="7.5" font-weight="400" font-style="normal" clip-path="url(#clip1848)">
          <defs>
            <clipPath id="clip1848">
              <path vector-effect="none" fill-rule="evenodd" d="M-20,-26 L20,-26 L20,14 L-20,14 L-20,-26z "/>
            </clipPath>
          </defs>
        </g>
        <g fill="#ffffff" fill-opacity="1" stroke="#000000" stroke-opacity="1" stroke-width="1" stroke-linecap="square" stroke-linejoin="bevel" transform="matrix(1.33333,0,0,1.33333,325,231)" font-family="Helvetica" font-size="7.5" font-weight="400" font-style="normal" clip-path="url(#clip1849)">
          <defs>
            <clipPath id="clip1849">
              <path vector-effect="none" fill-rule="evenodd" d="M-15,-19.5 L15,-19.5 L15,10.5 L-15,10.5 L-15,-19.5z "/>
            </clipPath>
          </defs>
          <text textLength="14" fill="#000000" fill-opacity="1" stroke="none" xml:space="preserve" x="-7.5" y="2.25" font-family="Helvetica" font-size="7.5" font-weight="400" font-style="normal">bit 1</text>
        </g>
        <g fill="#ffffff" fill-opacity="1" stroke="#000000" stroke-opacity="1" stroke-width="1" stroke-linecap="square" stroke-linejoin="bevel" transform="matrix(1,0,0,1,325,231)" font-family="Helvetica" font-size="7.5" font-weight="400" font-style="normal" clip-path="url(#clip1850)">
          <defs>
            <clipPath id="clip1850">
              <path vector-effect="none" fill-rule="evenodd" d="M-20,-26 L20,-26 L20,14 L-20,14 L-20,-26z "/>
            </clipPath>
          </defs>
        </g>
        <g fill="none" stroke="#000000" stroke-opacity="1" stroke-width="1" stroke-linecap="butt" stroke-linejoin="miter" stroke-miterlimit="2" transform="matrix(1,0,0,1,305,205)" font-family="MS Shell Dlg 2" font-size="8.25" font-weight="400" font-style="normal">
          <path vector-effect="none" fill-rule="evenodd" d="M0,0 L40,0 L40,40 L0,40 L0,0z "/>
        </g>
      </g>
      <g id="prop.ES241A_MotAg2Meas/MotAg2Meas/MotAg2MeasPer1/AnalogMsbDiagnostics/TestFail/SinCosMaxError/Constant" class="proptable" display="none" pointer-events="none" extent_Height="114" extent_Width="141.75" preferred_X="250" preferred_Y="215">
        <rect x="0" y="0" width="141.75" height="114" rx="4" ry="4" stroke="none" fill="rgb(100%,100%,100%)"/>
        <text x="3" y="12" fill="rgb(0%,0%,0%)" stroke="none" font-family="Helvetica" font-size="9">Value</text>
        <text x="76.25" y="12" fill="rgb(0%,0%,0%)" stroke="none" font-family="Helvetica" font-size="9">0</text>
        <rect x="0" y="15" width="141.75" height="14" stroke="none" fill="rgb(90.2%,90.2%,90.2%)"/>
        <text x="3" y="26" fill="rgb(0%,0%,0%)" stroke="none" font-family="Helvetica" font-size="9">VectorParams1D</text>
        <text x="76.25" y="26" fill="rgb(0%,0%,0%)" stroke="none" font-family="Helvetica" font-size="9">on</text>
        <text x="3" y="40" fill="rgb(0%,0%,0%)" stroke="none" font-family="Helvetica" font-size="9">SamplingMode</text>
        <text x="76.25" y="40" fill="rgb(0%,0%,0%)" stroke="none" font-family="Helvetica" font-size="9">Sample based</text>
        <rect x="0" y="43" width="141.75" height="14" stroke="none" fill="rgb(90.2%,90.2%,90.2%)"/>
        <text x="3" y="54" fill="rgb(0%,0%,0%)" stroke="none" font-family="Helvetica" font-size="9">OutMin</text>
        <text x="76.25" y="54" fill="rgb(0%,0%,0%)" stroke="none" font-family="Helvetica" font-size="9">[]</text>
        <text x="3" y="68" fill="rgb(0%,0%,0%)" stroke="none" font-family="Helvetica" font-size="9">OutMax</text>
        <text x="76.25" y="68" fill="rgb(0%,0%,0%)" stroke="none" font-family="Helvetica" font-size="9">[]</text>
        <rect x="0" y="71" width="141.75" height="14" stroke="none" fill="rgb(90.2%,90.2%,90.2%)"/>
        <text x="3" y="82" fill="rgb(0%,0%,0%)" stroke="none" font-family="Helvetica" font-size="9">OutDataTypeStr</text>
        <text x="76.25" y="82" fill="rgb(0%,0%,0%)" stroke="none" font-family="Helvetica" font-size="9">uint8</text>
        <text x="3" y="96" fill="rgb(0%,0%,0%)" stroke="none" font-family="Helvetica" font-size="9">LockScale</text>
        <text x="76.25" y="96" fill="rgb(0%,0%,0%)" stroke="none" font-family="Helvetica" font-size="9">off</text>
        <rect x="0" y="99" width="141.75" height="14" stroke="none" fill="rgb(90.2%,90.2%,90.2%)"/>
        <text x="3" y="110" fill="rgb(0%,0%,0%)" stroke="none" font-family="Helvetica" font-size="9">SampleTime</text>
        <text x="76.25" y="110" fill="rgb(0%,0%,0%)" stroke="none" font-family="Helvetica" font-size="9">inf</text>
        <rect x="0" y="0" width="141.75" height="114" rx="4" ry="4" stroke="rgb(0%,0%,0%)" fill="none"/>
      </g>
      <g id="ES241A_MotAg2Meas/MotAg2Meas/MotAg2MeasPer1/AnalogMsbDiagnostics/TestFail/SinCosMaxError/Constant" linkid="" onmouseover="showPropAndHighlight(evt)" onmouseout="hidePropAndUnhighlight(evt)" onclick="changeSys(evt)" highlight="fill">
        <title id="title.ES241A_MotAg2Meas/MotAg2Meas/MotAg2MeasPer1/AnalogMsbDiagnostics/TestFail/SinCosMaxError/Constant">Constant</title>
        <g fill="#ffffff" fill-opacity="1" stroke="none" transform="matrix(1,0,0,1,215,210)" font-family="MS Shell Dlg 2" font-size="8.25" font-weight="400" font-style="normal">
          <path vector-effect="none" fill-rule="evenodd" d="M0,0 L30,0 L30,30 L0,30 L0,0z "/>
        </g>
        <g fill="#ffffff" fill-opacity="1" stroke="none" transform="matrix(1,0,0,1,215,210)" font-family="MS Shell Dlg 2" font-size="8.25" font-weight="400" font-style="normal" clip-path="url(#clip1851)">
          <defs>
            <clipPath id="clip1851">
              <path vector-effect="none" fill-rule="evenodd" d="M0,0 L30,0 L30,30 L0,30 L0,0z "/>
            </clipPath>
          </defs>
        </g>
        <g fill="#ffffff" fill-opacity="1" stroke="#000000" stroke-opacity="1" stroke-width="1" stroke-linecap="square" stroke-linejoin="bevel" transform="matrix(1,0,0,1,230,225)" font-family="Helvetica" font-size="7.5" font-weight="400" font-style="normal" clip-path="url(#clip1852)">
          <defs>
            <clipPath id="clip1852">
              <path vector-effect="none" fill-rule="evenodd" d="M-15,-15 L15,-15 L15,15 L-15,15 L-15,-15z "/>
            </clipPath>
          </defs>
        </g>
        <g fill="#ffffff" fill-opacity="1" stroke="#000000" stroke-opacity="1" stroke-width="1" stroke-linecap="square" stroke-linejoin="bevel" transform="matrix(1.33333,0,0,1.33333,230,225)" font-family="Helvetica" font-size="7.5" font-weight="400" font-style="normal" clip-path="url(#clip1853)">
          <defs>
            <clipPath id="clip1853">
              <path vector-effect="none" fill-rule="evenodd" d="M-11.25,-11.25 L11.25,-11.25 L11.25,11.25 L-11.25,11.25 L-11.25,-11.25z "/>
            </clipPath>
          </defs>
          <text textLength="4" fill="#000000" fill-opacity="1" stroke="none" xml:space="preserve" x="-2.25" y="2.25" font-family="Helvetica" font-size="7.5" font-weight="400" font-style="normal">0</text>
        </g>
        <g fill="#ffffff" fill-opacity="1" stroke="#000000" stroke-opacity="1" stroke-width="1" stroke-linecap="square" stroke-linejoin="bevel" transform="matrix(1,0,0,1,230,225)" font-family="Helvetica" font-size="7.5" font-weight="400" font-style="normal" clip-path="url(#clip1854)">
          <defs>
            <clipPath id="clip1854">
              <path vector-effect="none" fill-rule="evenodd" d="M-15,-15 L15,-15 L15,15 L-15,15 L-15,-15z "/>
            </clipPath>
          </defs>
        </g>
        <g fill="none" stroke="#000000" stroke-opacity="1" stroke-width="1" stroke-linecap="butt" stroke-linejoin="miter" stroke-miterlimit="2" transform="matrix(1,0,0,1,215,210)" font-family="MS Shell Dlg 2" font-size="8.25" font-weight="400" font-style="normal">
          <path vector-effect="none" fill-rule="evenodd" d="M0,0 L30,0 L30,30 L0,30 L0,0z "/>
        </g>
      </g>
      <g id="prop.ES241A_MotAg2Meas/MotAg2Meas/MotAg2MeasPer1/AnalogMsbDiagnostics/TestFail/SinCosMaxError/CopyRight2" class="proptable" display="none" pointer-events="none" extent_Height="16" extent_Width="45.25" preferred_X="725" preferred_Y="105">
        <rect x="0" y="0" width="45.25" height="16" rx="4" ry="4" stroke="none" fill="rgb(100%,100%,100%)"/>
        <text x="3" y="12" fill="rgb(0%,0%,0%)" stroke="none" font-family="Helvetica" font-size="9">none</text>
        <text x="27.5" y="12" fill="rgb(0%,0%,0%)" stroke="none" font-family="Helvetica" font-size="9">on</text>
        <rect x="0" y="0" width="45.25" height="16" rx="4" ry="4" stroke="rgb(0%,0%,0%)" fill="none"/>
      </g>
      <g id="ES241A_MotAg2Meas/MotAg2Meas/MotAg2MeasPer1/AnalogMsbDiagnostics/TestFail/SinCosMaxError/CopyRight2" linkid="ES241A_MotAg2Meas/MotAg2Meas/MotAg2MeasPer1/AnalogMsbDiagnostics/TestFail/SinCosMaxError/CopyRight2" onmouseover="showPropAndHighlight(evt)" onmouseout="hidePropAndUnhighlight(evt)" onclick="changeSys(evt)" highlight="fill">
        <title id="title.ES241A_MotAg2Meas/MotAg2Meas/MotAg2MeasPer1/AnalogMsbDiagnostics/TestFail/SinCosMaxError/CopyRight2">CopyRight2</title>
        <g fill="#000000" fill-opacity="0.8" stroke="none" transform="matrix(1,0,0,1,410,100)" font-family="MS Shell Dlg 2" font-size="8.25" font-weight="400" font-style="normal">
          <path vector-effect="non-scaling-stroke" fill-rule="evenodd" d="M310,4 L314,4 L314,26 L4,26 L4,22 L310,22 L310,4z "/>
        </g>
        <g fill="#ffffff" fill-opacity="1" stroke="none" transform="matrix(1,0,0,1,410,100)" font-family="MS Shell Dlg 2" font-size="8.25" font-weight="400" font-style="normal">
          <path vector-effect="none" fill-rule="evenodd" d="M0,0 L310,0 L310,22 L0,22 L0,0z "/>
        </g>
        <g fill="#ffffff" fill-opacity="1" stroke="none" transform="matrix(1,0,0,1,410,100)" font-family="MS Shell Dlg 2" font-size="8.25" font-weight="400" font-style="normal" clip-path="url(#clip1855)">
          <defs>
            <clipPath id="clip1855">
              <path vector-effect="none" fill-rule="evenodd" d="M0,0 L310,0 L310,22 L0,22 L0,0z "/>
            </clipPath>
          </defs>
        </g>
        <g fill="#ffffff" fill-opacity="1" stroke="none" transform="matrix(1,0,0,1,0,0)" font-family="MS Shell Dlg 2" font-size="8.25" font-weight="400" font-style="normal" clip-path="url(#clip1856)">
          <defs>
            <clipPath id="clip1856">
              <path vector-effect="non-scaling-stroke" fill-rule="evenodd" d="M410,100 L720,100 L720,122 L410,122 L410,100z "/>
            </clipPath>
          </defs>
          <path vector-effect="non-scaling-stroke" fill-rule="evenodd" d="M410,100 L720,100 L720,122 L410,122 L410,100z "/>
        </g>
        <g fill="#ffffff" fill-opacity="1" stroke="#000000" stroke-opacity="1" stroke-width="1" stroke-linecap="square" stroke-linejoin="bevel" transform="matrix(1,0,0,1,565,111)" font-family="Arial" font-size="10.5" font-weight="400" font-style="normal" clip-path="url(#clip1857)">
          <defs>
            <clipPath id="clip1857">
              <path vector-effect="none" fill-rule="evenodd" d="M-155,-11 L155,-11 L155,11 L-155,11 L-155,-11z "/>
            </clipPath>
          </defs>
        </g>
        <g fill="#ffffff" fill-opacity="1" stroke="#000000" stroke-opacity="1" stroke-width="1" stroke-linecap="square" stroke-linejoin="bevel" transform="matrix(1.33333,0,0,1.33333,565,111)" font-family="Arial" font-size="10.5" font-weight="400" font-style="normal" clip-path="url(#clip1858)">
          <defs>
            <clipPath id="clip1858">
              <path vector-effect="none" fill-rule="evenodd" d="M-116.25,-8.25 L116.25,-8.25 L116.25,8.25 L-116.25,8.25 L-116.25,-8.25z "/>
            </clipPath>
          </defs>
          <text textLength="215" fill="#000000" fill-opacity="1" stroke="none" xml:space="preserve" x="-105" y="3.75" font-family="Arial" font-size="10.5" font-weight="400" font-style="normal">Nxtr Confidential -- ©2015- 2016 Nxtr</text>
        </g>
        <g fill="#ffffff" fill-opacity="1" stroke="#000000" stroke-opacity="1" stroke-width="1" stroke-linecap="square" stroke-linejoin="bevel" transform="matrix(1,0,0,1,565,111)" font-family="Arial" font-size="10.5" font-weight="400" font-style="normal" clip-path="url(#clip1859)">
          <defs>
            <clipPath id="clip1859">
              <path vector-effect="none" fill-rule="evenodd" d="M-155,-11 L155,-11 L155,11 L-155,11 L-155,-11z "/>
            </clipPath>
          </defs>
        </g>
        <g fill="none" stroke="#000000" stroke-opacity="1" stroke-width="1" stroke-linecap="butt" stroke-linejoin="miter" stroke-miterlimit="2" transform="matrix(1,0,0,1,410,100)" font-family="MS Shell Dlg 2" font-size="8.25" font-weight="400" font-style="normal">
          <path vector-effect="none" fill-rule="evenodd" d="M0,0 L310,0 L310,22 L0,22 L0,0z "/>
        </g>
      </g>
      <g id="prop.ES241A_MotAg2Meas/MotAg2Meas/MotAg2MeasPer1/AnalogMsbDiagnostics/TestFail/SinCosMaxError/_uniq_id_212" class="proptable" display="none" pointer-events="none" extent_Height="170" extent_Width="195" preferred_X="5" preferred_Y="5">
        <rect x="0" y="0" width="195" height="170" rx="4" ry="4" stroke="none" fill="rgb(100%,100%,100%)"/>
        <text x="3" y="12" fill="rgb(0%,0%,0%)" stroke="none" font-family="Helvetica" font-size="9">DataLogging</text>
        <text x="120.75" y="12" fill="rgb(0%,0%,0%)" stroke="none" font-family="Helvetica" font-size="9">0</text>
        <rect x="0" y="15" width="195" height="14" stroke="none" fill="rgb(90.2%,90.2%,90.2%)"/>
        <text x="3" y="26" fill="rgb(0%,0%,0%)" stroke="none" font-family="Helvetica" font-size="9">DataLoggingNameMode</text>
        <text x="120.75" y="26" fill="rgb(0%,0%,0%)" stroke="none" font-family="Helvetica" font-size="9">Use signal name</text>
        <text x="3" y="40" fill="rgb(0%,0%,0%)" stroke="none" font-family="Helvetica" font-size="9">UserSpecifiedLogName</text>
        <text x="120.75" y="40" fill="rgb(0%,0%,0%)" stroke="none" font-family="Helvetica" font-size="9"/>
        <rect x="0" y="43" width="195" height="14" stroke="none" fill="rgb(90.2%,90.2%,90.2%)"/>
        <text x="3" y="54" fill="rgb(0%,0%,0%)" stroke="none" font-family="Helvetica" font-size="9">DataLoggingDecimateData</text>
        <text x="120.75" y="54" fill="rgb(0%,0%,0%)" stroke="none" font-family="Helvetica" font-size="9">0</text>
        <text x="3" y="68" fill="rgb(0%,0%,0%)" stroke="none" font-family="Helvetica" font-size="9">DataLoggingDecimation</text>
        <text x="120.75" y="68" fill="rgb(0%,0%,0%)" stroke="none" font-family="Helvetica" font-size="9">2</text>
        <rect x="0" y="71" width="195" height="14" stroke="none" fill="rgb(90.2%,90.2%,90.2%)"/>
        <text x="3" y="82" fill="rgb(0%,0%,0%)" stroke="none" font-family="Helvetica" font-size="9">DataLoggingLimitDataPoints</text>
        <text x="120.75" y="82" fill="rgb(0%,0%,0%)" stroke="none" font-family="Helvetica" font-size="9">0</text>
        <text x="3" y="96" fill="rgb(0%,0%,0%)" stroke="none" font-family="Helvetica" font-size="9">DataLoggingMaxPoints</text>
        <text x="120.75" y="96" fill="rgb(0%,0%,0%)" stroke="none" font-family="Helvetica" font-size="9">5000</text>
        <rect x="0" y="99" width="195" height="14" stroke="none" fill="rgb(90.2%,90.2%,90.2%)"/>
        <text x="3" y="110" fill="rgb(0%,0%,0%)" stroke="none" font-family="Helvetica" font-size="9">TestPoint</text>
        <text x="120.75" y="110" fill="rgb(0%,0%,0%)" stroke="none" font-family="Helvetica" font-size="9">0</text>
        <text x="3" y="124" fill="rgb(0%,0%,0%)" stroke="none" font-family="Helvetica" font-size="9">SignalPropagation</text>
        <text x="120.75" y="124" fill="rgb(0%,0%,0%)" stroke="none" font-family="Helvetica" font-size="9">off</text>
        <rect x="0" y="127" width="195" height="14" stroke="none" fill="rgb(90.2%,90.2%,90.2%)"/>
        <text x="3" y="138" fill="rgb(0%,0%,0%)" stroke="none" font-family="Helvetica" font-size="9">MustResolveToSignalObject</text>
        <text x="120.75" y="138" fill="rgb(0%,0%,0%)" stroke="none" font-family="Helvetica" font-size="9">0</text>
        <text x="3" y="152" fill="rgb(0%,0%,0%)" stroke="none" font-family="Helvetica" font-size="9">StorageClass</text>
        <text x="120.75" y="152" fill="rgb(0%,0%,0%)" stroke="none" font-family="Helvetica" font-size="9">Auto</text>
        <rect x="0" y="155" width="195" height="14" stroke="none" fill="rgb(90.2%,90.2%,90.2%)"/>
        <text x="3" y="166" fill="rgb(0%,0%,0%)" stroke="none" font-family="Helvetica" font-size="9">RTWStorageTypeQualifier</text>
        <text x="120.75" y="166" fill="rgb(0%,0%,0%)" stroke="none" font-family="Helvetica" font-size="9"/>
        <rect x="0" y="0" width="195" height="170" rx="4" ry="4" stroke="rgb(0%,0%,0%)" fill="none"/>
      </g>
      <g id="ES241A_MotAg2Meas/MotAg2Meas/MotAg2MeasPer1/AnalogMsbDiagnostics/TestFail/SinCosMaxError/_uniq_id_212" linkid="" onmouseover="showPropAndHighlight(evt)" onmouseout="hidePropAndUnhighlight(evt)" onclick="changeSys(evt)" highlight="fill,stroke">
        <title id="title.ES241A_MotAg2Meas/MotAg2Meas/MotAg2MeasPer1/AnalogMsbDiagnostics/TestFail/SinCosMaxError/_uniq_id_212"/>
        <g fill="#000000" fill-opacity="1" stroke="none" transform="matrix(1,0,0,1,305,225)" font-family="MS Shell Dlg 2" font-size="8.25" font-weight="400" font-style="normal">
          <path vector-effect="none" fill-rule="nonzero" d="M0,0 L-8,-4 L-8,4 L0,0z "/>
        </g>
        <g fill="none" stroke="#000000" stroke-opacity="1" stroke-width="1" stroke-linecap="butt" stroke-linejoin="miter" stroke-miterlimit="2" transform="matrix(1,0,0,1,0,0)" font-family="MS Shell Dlg 2" font-size="8.25" font-weight="400" font-style="normal">
          <path vector-effect="none" fill-rule="evenodd" d="M245,225 L297,225"/>
        </g>
      </g>
      <g id="prop.ES241A_MotAg2Meas/MotAg2Meas/MotAg2MeasPer1/AnalogMsbDiagnostics/TestFail/SinCosMaxError/_uniq_id_213" class="proptable" display="none" pointer-events="none" extent_Height="170" extent_Width="195" preferred_X="5" preferred_Y="5">
        <rect x="0" y="0" width="195" height="170" rx="4" ry="4" stroke="none" fill="rgb(100%,100%,100%)"/>
        <text x="3" y="12" fill="rgb(0%,0%,0%)" stroke="none" font-family="Helvetica" font-size="9">DataLogging</text>
        <text x="120.75" y="12" fill="rgb(0%,0%,0%)" stroke="none" font-family="Helvetica" font-size="9">0</text>
        <rect x="0" y="15" width="195" height="14" stroke="none" fill="rgb(90.2%,90.2%,90.2%)"/>
        <text x="3" y="26" fill="rgb(0%,0%,0%)" stroke="none" font-family="Helvetica" font-size="9">DataLoggingNameMode</text>
        <text x="120.75" y="26" fill="rgb(0%,0%,0%)" stroke="none" font-family="Helvetica" font-size="9">Use signal name</text>
        <text x="3" y="40" fill="rgb(0%,0%,0%)" stroke="none" font-family="Helvetica" font-size="9">UserSpecifiedLogName</text>
        <text x="120.75" y="40" fill="rgb(0%,0%,0%)" stroke="none" font-family="Helvetica" font-size="9"/>
        <rect x="0" y="43" width="195" height="14" stroke="none" fill="rgb(90.2%,90.2%,90.2%)"/>
        <text x="3" y="54" fill="rgb(0%,0%,0%)" stroke="none" font-family="Helvetica" font-size="9">DataLoggingDecimateData</text>
        <text x="120.75" y="54" fill="rgb(0%,0%,0%)" stroke="none" font-family="Helvetica" font-size="9">0</text>
        <text x="3" y="68" fill="rgb(0%,0%,0%)" stroke="none" font-family="Helvetica" font-size="9">DataLoggingDecimation</text>
        <text x="120.75" y="68" fill="rgb(0%,0%,0%)" stroke="none" font-family="Helvetica" font-size="9">2</text>
        <rect x="0" y="71" width="195" height="14" stroke="none" fill="rgb(90.2%,90.2%,90.2%)"/>
        <text x="3" y="82" fill="rgb(0%,0%,0%)" stroke="none" font-family="Helvetica" font-size="9">DataLoggingLimitDataPoints</text>
        <text x="120.75" y="82" fill="rgb(0%,0%,0%)" stroke="none" font-family="Helvetica" font-size="9">0</text>
        <text x="3" y="96" fill="rgb(0%,0%,0%)" stroke="none" font-family="Helvetica" font-size="9">DataLoggingMaxPoints</text>
        <text x="120.75" y="96" fill="rgb(0%,0%,0%)" stroke="none" font-family="Helvetica" font-size="9">5000</text>
        <rect x="0" y="99" width="195" height="14" stroke="none" fill="rgb(90.2%,90.2%,90.2%)"/>
        <text x="3" y="110" fill="rgb(0%,0%,0%)" stroke="none" font-family="Helvetica" font-size="9">TestPoint</text>
        <text x="120.75" y="110" fill="rgb(0%,0%,0%)" stroke="none" font-family="Helvetica" font-size="9">0</text>
        <text x="3" y="124" fill="rgb(0%,0%,0%)" stroke="none" font-family="Helvetica" font-size="9">SignalPropagation</text>
        <text x="120.75" y="124" fill="rgb(0%,0%,0%)" stroke="none" font-family="Helvetica" font-size="9">off</text>
        <rect x="0" y="127" width="195" height="14" stroke="none" fill="rgb(90.2%,90.2%,90.2%)"/>
        <text x="3" y="138" fill="rgb(0%,0%,0%)" stroke="none" font-family="Helvetica" font-size="9">MustResolveToSignalObject</text>
        <text x="120.75" y="138" fill="rgb(0%,0%,0%)" stroke="none" font-family="Helvetica" font-size="9">0</text>
        <text x="3" y="152" fill="rgb(0%,0%,0%)" stroke="none" font-family="Helvetica" font-size="9">StorageClass</text>
        <text x="120.75" y="152" fill="rgb(0%,0%,0%)" stroke="none" font-family="Helvetica" font-size="9">Auto</text>
        <rect x="0" y="155" width="195" height="14" stroke="none" fill="rgb(90.2%,90.2%,90.2%)"/>
        <text x="3" y="166" fill="rgb(0%,0%,0%)" stroke="none" font-family="Helvetica" font-size="9">RTWStorageTypeQualifier</text>
        <text x="120.75" y="166" fill="rgb(0%,0%,0%)" stroke="none" font-family="Helvetica" font-size="9"/>
        <rect x="0" y="0" width="195" height="170" rx="4" ry="4" stroke="rgb(0%,0%,0%)" fill="none"/>
      </g>
      <g id="ES241A_MotAg2Meas/MotAg2Meas/MotAg2MeasPer1/AnalogMsbDiagnostics/TestFail/SinCosMaxError/_uniq_id_213" linkid="" onmouseover="showPropAndHighlight(evt)" onmouseout="hidePropAndUnhighlight(evt)" onclick="changeSys(evt)" highlight="fill,stroke">
        <title id="title.ES241A_MotAg2Meas/MotAg2Meas/MotAg2MeasPer1/AnalogMsbDiagnostics/TestFail/SinCosMaxError/_uniq_id_213"/>
        <g fill="#000000" fill-opacity="1" stroke="none" transform="matrix(1,0,0,1,480,225)" font-family="MS Shell Dlg 2" font-size="8.25" font-weight="400" font-style="normal">
          <path vector-effect="none" fill-rule="nonzero" d="M0,0 L-8,-4 L-8,4 L0,0z "/>
        </g>
        <g fill="none" stroke="#000000" stroke-opacity="1" stroke-width="1" stroke-linecap="butt" stroke-linejoin="miter" stroke-miterlimit="2" transform="matrix(1,0,0,1,0,0)" font-family="MS Shell Dlg 2" font-size="8.25" font-weight="400" font-style="normal">
          <path vector-effect="none" fill-rule="evenodd" d="M345,225 L472,225"/>
        </g>
      </g>
    </g>
  </g>
</svg>
